<?xml version="1.0" standalone="no"?>
<!DOCTYPE svg PUBLIC "-//W3C//DTD SVG 20010904//EN"
 "http://www.w3.org/TR/2001/REC-SVG-20010904/DTD/svg10.dtd">
<svg version="1.0" xmlns="http://www.w3.org/2000/svg"
 width="920.000000pt" height="920.000000pt" viewBox="0 0 920.000000 920.000000"
 preserveAspectRatio="xMidYMid meet">
<metadata>
Created by potrace 1.14, written by Peter Selinger 2001-2017
</metadata>
<g transform="translate(0.000000,920.000000) scale(0.100000,-0.100000)"
fill="#000000" stroke="none">
<path d="M225 9190 c3 -5 15 -10 27 -10 23 0 75 -23 131 -57 39 -25 61 -60 47
-78 -5 -5 -8 -14 -9 -20 0 -20 -66 -94 -93 -106 -15 -6 -30 -19 -33 -29 -11
-34 -43 -53 -86 -52 -35 2 -48 -4 -81 -33 -42 -38 -51 -38 -96 5 -13 12 -25
20 -28 17 -3 -2 -3 -58 -2 -123 l3 -119 42 44 41 45 62 -25 c43 -16 72 -36 93
-61 l29 -37 42 27 c22 15 47 33 54 39 7 7 18 13 23 13 5 0 20 9 32 20 17 16
22 32 22 70 0 63 13 77 54 60 17 -7 31 -19 31 -26 0 -8 11 -19 24 -26 14 -6
28 -18 31 -26 5 -14 -17 -49 -42 -65 -17 -10 -17 -35 0 -50 6 -7 37 -13 67
-13 75 -2 110 -7 110 -17 0 -5 14 -6 30 -3 17 2 30 0 30 -6 0 -5 6 -16 14 -24
17 -17 31 -94 22 -121 -4 -10 -26 -30 -50 -44 -28 -17 -50 -41 -64 -70 -12
-24 -37 -56 -56 -72 -20 -15 -33 -33 -30 -40 3 -6 23 -23 44 -37 22 -13 40
-29 40 -35 0 -7 -12 -23 -27 -36 -16 -14 -35 -36 -44 -49 -16 -25 -17 -25 -38
-6 -11 11 -21 27 -21 37 0 10 -7 24 -15 33 -8 8 -15 22 -15 30 0 20 -14 20
-34 1 -8 -8 -17 -15 -21 -15 -4 0 -13 -7 -21 -15 -23 -23 -36 -18 -65 23 -18
27 -38 42 -67 50 -23 7 -42 17 -42 22 0 6 -3 9 -7 8 -5 -1 -18 3 -31 10 -27
15 -63 18 -116 8 -38 -8 -86 7 -86 26 0 9 -37 48 -45 48 -3 0 -5 -101 -5 -224
l0 -225 30 -21 c16 -12 30 -27 30 -35 0 -7 5 -15 11 -17 6 -2 13 -24 16 -50 5
-40 2 -49 -23 -76 -63 -66 -65 -71 -62 -124 3 -45 7 -54 33 -69 17 -10 48 -23
70 -29 22 -6 47 -14 55 -17 22 -9 21 -9 75 -17 48 -7 126 -24 225 -48 46 -11
90 -25 170 -54 58 -20 80 -26 108 -28 21 -1 22 -4 16 -41 -9 -58 -26 -79 -101
-125 -38 -22 -93 -56 -123 -76 -54 -34 -54 -34 -22 -5 17 17 32 33 32 35 0 2
-26 7 -57 11 -32 3 -96 18 -143 31 -112 32 -228 56 -239 49 -5 -3 -11 -1 -13
4 -1 6 -22 13 -45 17 l-43 7 0 -45 0 -45 56 -12 c31 -6 80 -22 108 -35 31 -14
87 -28 141 -34 50 -6 111 -18 137 -26 29 -10 87 -17 150 -19 l103 -2 -6 -55
c-11 -86 -10 -318 2 -432 11 -112 60 -342 90 -425 41 -114 146 -293 172 -293
6 0 7 19 3 43 -21 134 -25 184 -26 294 0 237 46 497 121 670 27 64 52 119 55
122 3 4 3 -79 -1 -184 -10 -268 14 -459 104 -825 39 -157 157 -410 192 -410 5
0 6 15 4 33 -3 17 5 2 18 -34 30 -85 128 -244 211 -340 67 -78 77 -85 134 -99
36 -9 41 2 17 34 -16 21 -65 167 -64 188 0 7 9 -10 19 -39 10 -28 36 -87 58
-130 l39 -78 7 -215 c3 -118 10 -240 16 -270 5 -30 16 -99 24 -153 15 -96 50
-215 86 -292 10 -22 28 -67 41 -100 24 -65 75 -162 90 -171 21 -12 11 -19 -66
-49 -18 -8 -60 -13 -110 -15 -19 -1 -160 -24 -200 -34 -11 -2 -67 -16 -125
-29 -58 -14 -150 -28 -205 -32 -55 -3 -107 -8 -115 -10 -8 -2 -91 -14 -184
-25 -144 -18 -176 -20 -215 -9 -33 9 -40 14 -26 19 17 6 16 8 -9 26 -15 10
-36 27 -47 37 -10 9 -24 17 -30 17 -5 0 -7 5 -3 11 4 8 0 7 -15 -1 -12 -6 -19
-15 -17 -19 7 -11 -37 -5 -63 9 -12 6 -26 23 -32 37 l-10 26 -22 -22 c-29 -27
-37 -27 -37 2 -1 20 -2 21 -14 5 -7 -10 -16 -15 -19 -11 -4 3 -7 1 -7 -5 0 -7
7 -12 15 -12 8 0 15 -8 15 -17 0 -14 -3 -13 -23 5 -13 12 -32 22 -43 22 -16 0
-16 -2 -4 -10 12 -7 12 -12 2 -22 -14 -14 -84 -12 -93 3 -7 12 -68 19 -75 8
-9 -15 -32 2 -39 29 -10 41 -6 203 5 232 2 3 3 14 4 25 1 11 5 44 10 73 6 37
4 57 -4 67 -7 8 -10 15 -6 15 4 0 0 10 -8 23 -21 33 -25 66 -32 237 -3 85 -6
161 -7 168 0 8 -8 10 -20 6 -15 -5 -17 -3 -11 7 6 12 5 12 -8 1 -22 -18 -27
-56 -29 -217 -1 -124 -6 -177 -23 -265 -5 -24 -15 -342 -18 -530 l-1 -95 -37
-17 c-20 -10 -51 -18 -68 -18 l-32 0 0 -89 c0 -92 7 -109 37 -92 12 6 28 5 48
-4 17 -7 25 -14 18 -14 -7 -1 -10 -8 -7 -16 3 -8 11 -13 17 -12 19 3 20 -49 2
-67 -9 -9 -13 -21 -9 -27 9 -15 -17 -30 -40 -23 -10 4 -22 0 -27 -7 -4 -8 -14
-14 -21 -14 -10 0 -14 -61 -16 -287 -1 -200 1 -288 8 -288 6 0 8 -5 4 -12 -4
-6 -3 -8 4 -4 6 3 14 1 18 -5 5 -9 10 -8 18 3 15 20 56 30 49 12 -3 -9 2 -14
16 -14 12 0 21 -6 22 -12 1 -7 3 -62 5 -123 2 -60 9 -141 15 -180 13 -84 13
-103 -6 -200 -13 -68 -34 -128 -35 -98 0 7 -7 10 -15 7 -9 -4 -19 4 -27 23 -7
15 -20 35 -30 44 -9 8 -20 27 -23 42 -7 25 -1 31 25 29 10 -1 9 37 -1 43 -5 4
-6 12 -2 18 20 30 9 127 -16 156 -10 12 -21 21 -25 21 -8 0 -8 -755 0 -763 9
-8 68 14 77 30 12 19 33 16 34 -5 1 -13 -16 -26 -58 -45 l-59 -27 0 -80 c0
-77 1 -81 26 -90 33 -13 34 -13 34 5 0 22 37 38 44 19 3 -8 10 -13 15 -10 5 3
7 -2 4 -13 -3 -10 0 -21 5 -25 6 -4 5 -23 -4 -53 -13 -42 -13 -49 0 -59 13 -9
12 -13 -5 -27 -25 -22 -27 -21 -50 5 -14 18 -21 20 -27 10 -5 -7 -16 -10 -25
-6 -16 6 -17 -34 -17 -545 l0 -551 321 0 c276 0 320 2 310 14 -9 10 -9 16 -1
21 8 5 6 13 -5 25 -13 14 -13 19 -3 23 10 4 10 6 1 6 -7 1 -13 8 -13 16 0 8
-7 15 -16 15 -8 0 -13 4 -10 9 3 5 -10 25 -30 45 -19 19 -33 40 -29 46 3 5 6
32 7 60 0 27 3 50 7 50 4 0 7 9 7 20 0 11 -4 20 -8 20 -4 0 -8 7 -8 16 0 8 5
12 10 9 17 -11 11 3 -14 30 -15 16 -27 22 -31 15 -3 -6 -10 -8 -15 -5 -4 3
-13 -2 -20 -10 -7 -9 -20 -13 -29 -10 -9 2 -29 -2 -44 -10 -15 -8 -34 -12 -42
-8 -11 4 -14 0 -10 -13 4 -12 1 -11 -6 4 -7 12 -16 22 -21 22 -4 0 -8 5 -8 10
0 6 6 10 13 10 7 0 13 9 14 20 1 11 3 31 4 44 1 14 9 26 19 29 15 4 17 11 10
46 -5 29 -4 46 5 55 19 19 28 72 30 175 1 72 5 96 17 105 8 6 18 21 22 34 4
12 12 22 18 22 6 0 8 9 5 20 -3 11 0 20 6 20 7 0 2 8 -11 18 -14 11 -21 24
-17 33 3 9 0 16 -7 16 -7 0 -26 3 -41 7 -15 3 -27 3 -26 -1 1 -5 -2 -18 -6
-31 -6 -17 -11 -20 -20 -12 -11 9 -12 7 -8 -9 3 -13 -2 -23 -15 -30 -24 -13
-36 -3 -19 17 7 9 7 13 1 9 -28 -17 -46 102 -21 145 14 25 87 100 87 90 0 -4
5 1 11 11 6 9 14 15 20 12 5 -4 5 4 -1 19 -8 22 -6 28 13 38 33 18 56 17 51
-1 -3 -9 1 -6 7 7 13 24 44 30 52 10 3 -7 6 -4 6 7 1 16 9 20 44 22 32 1 38
-1 24 -8 -9 -6 -23 -7 -30 -4 -6 4 -1 -2 13 -13 l25 -21 19 21 c14 15 16 23 8
26 -10 3 -10 7 -1 18 10 12 9 13 -5 8 -12 -5 -15 -2 -10 10 3 9 10 13 15 10 5
-3 9 -1 9 5 0 5 -5 13 -10 16 -6 4 -8 11 -4 16 8 14 36 -11 30 -26 -2 -7 0
-18 5 -26 6 -10 8 -4 5 17 -2 17 -6 36 -10 43 -4 6 -4 10 1 9 4 -1 32 10 61
24 28 15 52 24 52 20 0 -4 5 0 10 9 5 9 24 16 44 17 19 1 52 8 72 17 20 8 43
15 50 15 8 0 32 11 53 25 50 31 148 66 167 58 8 -3 21 0 29 7 8 6 19 9 25 5 5
-3 10 -2 10 3 0 17 185 100 250 112 35 6 76 18 91 25 14 8 29 11 33 8 3 -4 6
-1 6 6 0 8 6 9 18 3 9 -5 22 -7 28 -5 16 5 55 -63 47 -82 -3 -10 0 -15 8 -13
9 2 13 -4 11 -16 -2 -12 1 -16 10 -10 7 4 4 -3 -7 -16 -11 -13 -14 -20 -6 -15
10 6 12 4 5 -6 -5 -8 -7 -21 -6 -31 2 -9 -6 -23 -17 -30 -11 -8 -22 -25 -24
-39 -2 -13 -9 -24 -15 -24 -6 0 -13 -3 -17 -7 -4 -4 -13 -4 -20 -2 -8 3 -15
-7 -18 -26 -6 -27 -10 -30 -34 -24 -16 3 -39 11 -52 17 -19 9 -25 9 -28 0 -3
-7 -9 -13 -15 -13 -5 0 -8 6 -5 13 5 17 -50 39 -72 28 -10 -6 -23 -6 -32 0
-19 12 -62 12 -54 0 3 -6 -6 -7 -23 -2 -34 10 -73 -12 -55 -30 6 -6 9 -18 6
-26 -5 -12 -8 -11 -24 3 -10 9 -23 13 -28 9 -6 -3 -11 -2 -11 4 0 11 -50 -4
-60 -17 -3 -4 -16 -13 -30 -19 -22 -10 -22 -12 -5 -12 17 -1 17 -3 5 -11 -21
-14 -50 -12 -46 2 1 7 1 10 -1 5 -3 -4 -10 -4 -15 -1 -6 4 -8 2 -5 -4 4 -5 4
-17 1 -26 -5 -13 -9 -14 -20 -5 -12 10 -13 9 -8 -5 8 -20 9 -20 38 0 15 9 27
11 30 5 4 -5 2 -12 -4 -16 -19 -12 -11 -33 10 -28 11 3 17 10 14 17 -3 6 6 -2
20 -17 15 -17 26 -39 25 -55 0 -15 -3 -21 -6 -14 -2 6 -12 12 -21 12 -13 0
-12 -2 3 -14 14 -10 25 -11 38 -5 9 6 23 7 29 3 7 -5 8 -3 3 6 -6 10 -4 12 8
7 11 -4 14 -2 10 9 -3 7 0 14 5 14 6 0 14 -9 17 -21 4 -11 12 -18 19 -16 7 3
19 1 27 -4 10 -6 10 -9 2 -9 -7 0 -13 -10 -13 -21 0 -18 -2 -19 -15 -9 -9 7
-18 10 -22 6 -3 -3 -2 -6 4 -6 6 0 13 -9 16 -20 4 -16 0 -20 -21 -21 -26 0
-26 -1 -5 -9 21 -9 21 -11 8 -37 -14 -26 -14 -29 6 -45 21 -18 21 -18 1 -18
-18 0 -19 -3 -9 -24 7 -14 20 -27 29 -30 23 -5 23 -26 1 -26 -13 0 -14 -3 -5
-12 18 -18 15 -32 -12 -63 -21 -24 -22 -30 -10 -42 8 -8 14 -17 14 -21 -1 -13
-27 -42 -38 -42 -6 0 -9 -11 -7 -25 2 -20 0 -23 -11 -14 -11 9 -14 8 -14 -1 0
-9 -3 -10 -13 -1 -8 6 -16 9 -19 6 -3 -3 -30 6 -61 20 -47 20 -56 29 -54 47 1
14 -3 23 -13 23 -8 0 -15 8 -15 17 0 9 -9 24 -20 33 -11 9 -14 14 -8 10 7 -3
21 -8 32 -10 16 -3 18 1 14 26 -2 17 0 29 7 29 6 0 8 -4 5 -10 -3 -5 -3 -15 0
-21 10 -15 54 53 51 77 -2 15 -11 19 -41 18 -22 -1 -32 2 -24 6 12 8 25 60 15
60 -2 0 -17 -7 -32 -15 -22 -11 -24 -15 -10 -15 15 0 16 -3 6 -14 -6 -8 -19
-12 -28 -9 -14 5 -15 3 -4 -8 19 -21 14 -29 -12 -19 -18 7 -28 5 -37 -6 -11
-13 -10 -15 7 -12 15 2 18 -2 16 -21 -1 -13 -10 -30 -20 -37 -10 -8 -12 -13
-4 -14 21 0 13 -20 -8 -20 -11 0 -23 -7 -25 -15 -16 -50 -14 -49 -34 -26 -12
14 -22 18 -26 11 -3 -5 -1 -10 4 -10 6 0 11 -5 11 -11 0 -5 -4 -8 -9 -5 -11 7
-20 -14 -14 -31 3 -7 12 -13 21 -13 15 -1 15 -2 0 -14 -26 -19 -23 -72 4 -99
13 -12 23 -33 24 -47 0 -14 3 -32 5 -40 2 -9 -2 -14 -11 -12 -13 2 -12 0 1
-10 9 -7 14 -19 12 -25 -3 -8 4 -13 16 -13 12 0 21 4 21 9 0 5 9 7 20 4 14 -4
19 -1 15 8 -3 9 3 14 20 15 20 2 25 -3 25 -23 0 -24 -57 -150 -81 -179 -6 -7
-9 -21 -5 -29 3 -9 -1 -34 -9 -57 -7 -23 -12 -45 -10 -49 3 -3 -16 -19 -40
-35 -25 -15 -45 -34 -45 -41 0 -16 -27 -17 -32 -2 -3 9 -10 8 -28 -1 -23 -12
-23 -13 -5 -26 26 -19 5 -18 -23 2 -12 8 -22 11 -22 6 0 -5 -9 -20 -20 -33
l-21 -23 21 -8 c12 -4 18 -12 15 -18 -3 -5 2 -9 12 -8 35 3 50 -2 50 -17 0 -8
-3 -13 -6 -11 -3 1 -15 -6 -25 -17 -18 -19 -18 -20 -2 -14 14 5 17 3 12 -8 -3
-9 0 -15 9 -15 8 0 15 5 15 12 0 9 3 9 12 0 15 -15 2138 -18 2138 -3 0 5 -12
24 -27 41 l-26 32 6 155 c4 86 9 158 11 160 2 3 26 -16 53 -41 96 -91 376
-240 588 -313 l110 -38 195 -3 195 -3 1 250 c1 137 4 258 8 267 6 15 8 15 24
2 10 -8 37 -14 66 -14 48 1 49 2 60 39 6 22 15 35 19 30 5 -4 5 5 1 21 -6 26
-5 27 13 18 18 -10 20 -26 26 -193 4 -100 7 -235 7 -301 0 -109 1 -118 19
-118 25 0 33 34 26 120 -4 48 -2 70 5 70 6 0 10 -8 9 -17 -1 -10 -1 -53 0 -95
l1 -78 479 0 480 0 153 44 c84 24 207 65 273 90 66 25 123 46 127 46 4 0 72
31 150 70 144 70 310 168 385 228 23 18 44 32 49 32 4 0 4 -72 1 -160 -7 -174
-9 -182 -78 -279 -22 -30 -39 -58 -39 -63 0 -4 666 -8 1480 -8 l1480 0 0 1168
c0 1106 -1 1169 -17 1169 -10 0 -21 -5 -25 -10 -4 -7 -14 -2 -26 13 l-19 24
-7 -22 c-7 -21 -7 -21 -28 -2 -19 17 -23 18 -42 5 -25 -18 -40 -19 -30 -3 5 8
2 9 -12 3 -33 -14 -112 -2 -158 23 -5 3 -6 0 -2 -6 9 -15 -5 -15 -41 -1 -15 6
-41 13 -58 15 -64 7 -98 17 -117 36 -10 10 -23 16 -28 13 -6 -4 -10 -1 -10 6
0 7 -3 10 -6 6 -4 -3 -18 0 -33 7 -14 7 -35 12 -46 10 -10 -1 -26 3 -34 9 -11
9 -15 9 -18 0 -3 -7 -12 -13 -20 -13 -14 0 -13 3 3 21 19 21 19 22 -3 15 -15
-5 -29 0 -47 17 -18 17 -35 23 -53 20 -25 -3 -26 -2 -7 6 30 13 39 30 24 44
-10 9 -11 9 -6 -1 5 -7 -1 -15 -16 -21 -29 -11 -38 -6 -33 19 2 11 -4 25 -13
32 -9 7 -26 29 -36 48 -17 30 -17 33 -3 21 9 -7 17 -10 17 -6 0 5 8 1 18 -8
12 -11 26 -14 52 -8 22 4 30 10 22 14 -6 5 -12 13 -12 19 0 7 4 7 14 -1 10 -9
16 -8 25 3 10 12 9 17 -8 28 -23 14 -28 38 -9 38 6 0 9 3 6 6 -12 12 -47 -16
-43 -35 3 -14 -1 -18 -16 -14 -10 3 -17 8 -14 12 2 4 -5 14 -15 21 -18 13 -19
15 -2 33 16 19 16 19 -6 13 -15 -5 -22 -4 -20 4 2 7 -3 15 -9 17 -7 3 -13 0
-13 -6 0 -6 -7 -8 -15 -5 -8 4 -15 1 -15 -5 0 -6 -7 -8 -15 -5 -8 4 -12 11 -8
17 3 6 1 7 -6 3 -6 -4 -25 -1 -42 8 -28 14 -31 14 -40 -7 l-10 -22 5 22 c2 15
-2 23 -15 26 -12 3 -17 11 -13 20 3 8 1 18 -4 21 -5 3 -8 -6 -6 -19 3 -28 -5
-32 -24 -13 -10 10 -15 10 -20 1 -6 -9 -11 -7 -20 7 -10 16 -9 18 3 14 10 -4
13 -2 10 7 -3 8 -17 15 -31 16 -15 0 -30 7 -35 15 -6 10 -9 10 -9 1 0 -7 -6
-13 -14 -13 -8 0 -21 -8 -28 -19 -7 -10 -24 -22 -38 -26 -13 -4 -29 -13 -35
-19 -7 -6 -24 -20 -40 -31 -39 -27 -128 -105 -200 -174 -33 -31 -85 -78 -115
-103 -30 -25 -68 -58 -85 -74 -16 -15 -55 -48 -85 -73 -30 -24 -57 -47 -60
-51 -14 -16 -89 -70 -98 -70 -6 0 -32 -22 -59 -48 -58 -59 -136 -122 -150
-122 -6 0 -54 -44 -106 -97 -114 -116 -226 -218 -322 -295 -38 -30 -78 -65
-89 -76 l-19 -22 -33 29 c-18 16 -62 46 -98 66 l-65 36 47 42 c27 23 72 62
102 87 30 25 108 92 173 150 66 58 138 120 161 138 22 19 86 76 141 127 120
113 139 130 146 130 8 0 109 85 163 138 27 26 50 47 51 47 2 0 18 15 37 32 18
18 62 59 98 91 36 33 99 92 140 132 41 40 107 94 145 120 76 52 195 163 195
181 0 7 6 14 14 17 8 3 14 15 13 26 0 11 -4 18 -7 17 -60 -29 -126 -62 -130
-66 -3 -3 -21 -14 -40 -24 -19 -11 -42 -26 -51 -35 -8 -9 -28 -25 -43 -36 -16
-11 -33 -25 -40 -31 -6 -6 -36 -27 -66 -48 -30 -21 -84 -60 -120 -88 -73 -56
-566 -420 -620 -458 -19 -14 -70 -53 -113 -87 -80 -64 -92 -69 -115 -54 -20
12 -27 172 -11 276 7 50 12 94 11 99 -2 4 -5 97 -7 205 l-4 196 44 47 c24 26
62 59 86 74 37 23 52 26 104 24 33 -2 80 -3 104 -2 51 2 71 -11 71 -43 0 -48
21 -84 55 -95 41 -14 76 -5 111 26 14 14 49 36 77 50 140 69 142 71 143 220 2
105 4 117 26 147 14 17 33 47 42 65 9 18 55 91 101 163 47 71 102 160 122 197
20 37 48 85 62 107 66 105 214 387 250 477 18 44 34 65 74 95 28 21 94 89 147
151 66 79 110 122 146 142 l50 28 -3 -46 c-3 -54 -15 -712 -14 -757 2 -60 23
-137 43 -157 26 -26 77 -19 189 28 139 58 146 62 217 134 67 68 101 85 128 62
18 -17 96 -34 106 -24 6 6 9 68 8 149 -1 76 -3 306 -4 512 -1 263 -5 376 -13
378 -18 6 -157 -68 -143 -77 9 -6 9 -9 -1 -13 -12 -4 -11 -7 1 -16 12 -8 12
-11 1 -11 -9 0 -10 -4 -4 -13 10 -12 10 -71 -1 -116 -3 -14 -1 -30 5 -37 8
-10 5 -15 -15 -20 -14 -3 -26 -10 -26 -16 0 -5 -4 -6 -10 -3 -6 3 -10 -4 -10
-16 0 -22 0 -22 20 -4 20 18 21 18 14 -1 -4 -10 -15 -24 -23 -31 -14 -10 -13
-11 4 -9 27 4 40 -4 24 -15 -11 -7 -11 -9 1 -9 12 0 12 -2 2 -9 -12 -7 -12
-12 0 -31 10 -18 11 -23 0 -27 -10 -4 -10 -8 0 -21 11 -13 11 -14 -1 -7 -11 6
-12 5 -5 -6 14 -23 15 -51 3 -65 -9 -11 -8 -14 2 -14 10 -1 9 -4 -3 -14 -10
-7 -15 -16 -11 -19 3 -4 -1 -7 -10 -7 -10 0 -17 -5 -17 -11 0 -5 5 -7 12 -3 7
4 8 3 4 -5 -4 -6 -11 -9 -16 -6 -4 3 -11 -1 -14 -7 -3 -7 -3 -1 0 14 5 21 2
26 -13 25 -10 -1 -17 4 -15 11 1 6 -1 12 -5 12 -13 0 -15 111 -3 125 6 8 10
19 9 27 -2 7 2 23 9 36 7 12 10 26 7 31 -3 5 1 12 7 14 10 4 10 6 0 6 -7 1
-10 6 -7 11 4 6 1 18 -7 27 -9 12 -9 15 0 9 15 -9 16 -11 -8 56 -19 55 -24
162 -7 151 5 -3 4 4 -2 16 -7 12 -9 26 -6 31 3 6 1 10 -4 10 -6 0 -19 8 -29
18 -10 9 -32 25 -48 34 -16 10 -28 21 -27 25 2 5 30 89 64 188 44 128 71 230
94 355 19 96 34 166 34 156 1 -18 2 -18 19 -3 12 11 22 13 35 6 11 -7 17 -7
17 0 0 5 9 8 20 6 32 -6 78 50 71 88 -1 5 3 25 9 45 5 21 6 38 0 42 -8 5 -11
21 -26 138 -3 25 -15 53 -26 64 -19 19 -20 22 -5 33 20 14 23 30 4 18 -12 -8
-17 -9 -37 -12 -5 0 -10 -15 -10 -31 0 -18 -6 -33 -15 -36 -8 -4 -15 -10 -15
-16 0 -5 -7 -16 -15 -24 -12 -12 -15 -12 -15 -2 0 15 -43 469 -60 633 -7 61
-18 142 -26 180 -30 151 -143 566 -187 686 -57 159 -153 385 -179 421 -10 15
-30 76 -45 135 -74 315 -301 903 -348 903 -11 0 -4 -23 29 -87 24 -49 47 -99
51 -113 4 -14 29 -76 57 -139 27 -62 58 -147 69 -189 12 -41 32 -105 46 -141
27 -72 74 -264 93 -381 7 -41 25 -142 41 -225 27 -145 39 -290 44 -499 1 -66
6 -101 13 -104 7 -2 12 8 13 25 0 15 2 50 5 78 8 85 -38 516 -72 669 -11 46
14 22 27 -27 6 -23 27 -78 46 -122 44 -101 155 -433 182 -545 74 -312 98 -434
116 -590 53 -470 53 -812 0 -1080 -15 -74 -83 -301 -122 -405 -15 -38 -45 -99
-68 -135 -41 -63 -154 -182 -205 -216 -14 -10 -37 -28 -52 -42 -29 -27 -37
-20 -15 13 7 11 20 40 27 65 8 25 27 74 43 109 15 35 39 104 52 155 13 50 33
123 45 161 45 154 60 353 41 565 -6 58 -15 170 -21 250 -13 164 -51 440 -75
545 -9 39 -34 124 -56 190 -43 134 -48 164 -20 122 10 -16 22 -29 27 -30 13
-2 47 -45 79 -102 15 -27 33 -57 40 -65 20 -23 157 -286 235 -450 27 -58 50
-101 50 -96 0 10 -128 296 -140 311 -4 6 -35 64 -70 130 -34 66 -68 127 -75
135 -6 8 -28 42 -48 75 -19 33 -54 78 -77 100 -23 22 -60 73 -82 113 -22 39
-44 72 -49 72 -13 0 -14 2 46 -168 57 -163 116 -380 134 -492 10 -66 23 -216
41 -485 6 -82 15 -214 20 -293 10 -139 9 -148 -21 -310 -16 -92 -37 -189 -46
-217 -84 -267 -123 -356 -212 -488 -48 -72 -198 -233 -208 -224 -2 3 1 31 6
64 23 126 32 266 21 343 -27 181 -72 270 -187 365 -78 64 -146 92 -261 108
-80 10 -125 6 -218 -19 -22 -6 -21 -4 11 133 18 76 40 192 49 258 9 66 21 144
26 174 6 30 10 68 10 85 0 29 1 29 13 11 30 -45 60 -213 76 -429 10 -128 24
-162 59 -140 17 11 87 206 130 361 69 252 88 592 46 806 l-6 27 54 -31 c163
-98 210 -120 299 -143 148 -38 267 -45 257 -16 -2 5 -24 24 -49 42 -94 68
-254 270 -397 503 -23 39 -70 115 -104 170 -73 120 -66 111 -77 99 -11 -10 10
-54 79 -166 24 -40 51 -85 60 -100 38 -68 90 -147 145 -222 33 -45 72 -100 87
-121 15 -22 59 -73 98 -112 38 -40 64 -73 56 -73 -34 0 -76 14 -76 24 0 15
-47 59 -129 121 -93 71 -133 111 -547 555 -96 103 -313 363 -347 416 -27 42
-47 56 -47 34 0 -6 13 -43 29 -83 80 -195 109 -289 155 -487 14 -63 40 -173
56 -244 54 -229 63 -318 56 -536 -3 -107 -10 -238 -16 -290 -16 -149 -98 -560
-120 -601 -5 -9 -6 -26 -4 -36 7 -24 -41 -178 -88 -288 -19 -44 -60 -120 -92
-169 -31 -49 -56 -95 -56 -102 0 -7 -5 -16 -10 -19 -6 -4 -1 17 10 47 11 29
20 62 20 73 0 11 9 45 20 75 11 30 25 75 31 100 5 25 43 118 84 207 41 89 75
167 75 173 0 5 -8 10 -17 10 -13 0 -28 -23 -52 -78 -18 -42 -43 -97 -55 -122
-26 -54 -175 -321 -186 -333 -11 -13 12 107 53 263 13 52 27 120 30 150 l5 55
-14 -60 c-7 -33 -21 -91 -30 -130 -8 -38 -22 -90 -29 -115 -13 -41 -23 -98
-29 -171 -3 -34 -149 -307 -190 -356 -18 -21 -36 -47 -39 -57 -4 -10 -9 -17
-12 -15 -4 5 22 249 51 474 29 225 47 539 47 805 0 279 -7 368 -49 569 -14 64
-34 163 -45 221 -20 107 -33 150 -101 349 -38 111 -110 249 -116 220 -1 -8 4
-45 12 -84 11 -57 14 -63 15 -32 0 20 5 37 9 37 5 0 16 -17 24 -37 87 -212 87
-212 72 -228 -13 -13 -13 -20 -1 -57 29 -84 76 -274 82 -328 4 -30 15 -98 25
-150 11 -52 22 -133 25 -180 3 -47 8 -118 11 -158 l5 -73 -129 133 c-71 73
-191 205 -266 293 -74 88 -155 183 -179 210 -24 28 -58 70 -75 95 -30 41 -51
70 -168 222 -22 29 -43 62 -47 73 -3 11 -15 46 -26 79 -12 32 -19 62 -16 66 3
5 0 19 -5 32 l-11 23 5 -24 c3 -13 1 -20 -3 -15 -14 15 -31 101 -25 121 4 12
3 14 -3 6 -6 -8 -13 3 -22 35 -12 41 -46 133 -157 422 -16 41 -29 80 -29 87 0
7 -6 18 -13 25 -14 14 -16 28 -4 28 12 0 158 -142 237 -230 37 -41 86 -95 109
-120 54 -60 131 -159 184 -239 23 -35 52 -77 65 -94 29 -40 84 -135 98 -169
12 -30 35 -43 46 -25 12 19 5 159 -12 230 -8 36 -31 107 -50 158 -20 50 -33
99 -31 108 3 9 -1 30 -9 46 -7 17 -14 23 -14 15 -1 -16 -51 85 -82 165 -23 60
-23 66 -2 40 14 -18 15 -18 9 -2 -3 10 -6 21 -6 23 0 2 -6 4 -14 4 -7 0 -43
53 -80 118 -73 129 -97 171 -109 187 -4 5 -46 73 -93 149 -95 155 -294 450
-364 540 -178 230 -400 463 -400 420 0 -3 45 -54 99 -112 150 -161 234 -267
417 -527 79 -112 178 -270 340 -540 71 -119 167 -301 190 -365 14 -36 43 -103
64 -150 44 -96 105 -297 115 -380 l6 -55 -22 35 c-68 110 -160 243 -204 295
-28 33 -61 74 -74 90 -12 17 -86 99 -164 183 -96 105 -164 169 -214 203 -40
27 -79 62 -87 77 -16 31 -44 58 -51 50 -3 -3 8 -32 24 -65 35 -69 141 -330
141 -345 0 -5 20 -62 45 -125 25 -64 57 -157 71 -207 14 -50 46 -147 70 -214
79 -216 39 -160 -51 73 -32 82 -82 172 -100 179 -8 3 -15 3 -15 1 0 -2 19 -46
41 -97 23 -51 59 -135 81 -187 21 -51 54 -126 73 -165 38 -82 139 -312 162
-371 31 -79 116 -271 149 -335 45 -89 92 -194 89 -198 -2 -2 -48 24 -104 57
-95 56 -131 81 -295 201 -33 25 -119 101 -190 170 -202 196 -400 474 -584 820
-19 36 -42 76 -52 90 -9 14 -51 95 -93 180 -79 161 -101 199 -112 189 -16 -17
104 -277 206 -445 27 -45 49 -84 49 -87 0 -3 21 -42 48 -85 26 -44 59 -102 75
-129 27 -47 101 -153 214 -307 79 -106 79 -108 49 -96 -61 23 -232 140 -286
194 -24 25 -48 46 -52 46 -15 0 -391 384 -438 446 -24 32 -62 84 -85 114 -60
79 -203 296 -252 382 -65 114 -230 484 -220 494 2 2 12 -15 23 -38 30 -69 94
-181 119 -208 12 -14 72 -99 133 -190 106 -158 209 -289 383 -487 84 -94 117
-112 97 -50 -6 18 -15 36 -20 42 -5 5 -3 -5 3 -23 15 -45 2 -54 -24 -17 -12
17 -42 53 -67 80 -25 28 -52 60 -60 71 -8 12 -47 59 -85 105 -83 99 -130 162
-210 284 -33 49 -83 122 -112 162 -28 40 -82 125 -120 188 -37 64 -81 138 -98
165 -16 28 -35 50 -42 50 -17 0 -17 3 13 -82 56 -154 235 -534 280 -594 25
-32 29 -48 40 -182 13 -153 55 -428 79 -521 8 -30 11 -59 8 -64 -3 -6 -2 -7 4
-4 6 4 15 -33 23 -98 8 -57 16 -102 20 -100 3 2 18 -38 33 -88 16 -51 33 -103
39 -117 6 -14 21 -56 34 -95 12 -38 39 -113 59 -165 20 -52 34 -103 31 -113
-2 -11 -2 -16 1 -13 6 6 68 -119 107 -219 16 -38 41 -96 57 -129 17 -32 28
-60 26 -62 -10 -10 -149 58 -220 107 -116 80 -276 218 -326 281 -32 41 -49 54
-63 50 -17 -4 -17 -6 -3 -28 27 -41 16 -37 -50 22 -49 43 -68 68 -77 98 -32
115 -40 31 -11 -115 19 -94 59 -223 108 -344 12 -28 -64 64 -126 154 -114 163
-191 341 -259 593 l-29 111 29 -28 c23 -22 33 -26 41 -18 9 9 0 27 -36 72 -27
32 -58 76 -70 98 -60 107 -171 313 -191 353 -33 66 -119 276 -142 345 -67 204
-92 288 -102 350 -6 39 -15 92 -21 118 -8 41 -31 326 -33 411 -2 72 33 14 48
-79 1 -11 8 -32 13 -46 6 -14 16 -45 23 -70 30 -112 44 -153 48 -141 2 7 -1
25 -6 40 -10 24 -41 136 -91 326 -10 39 -22 71 -27 73 -5 2 -16 -25 -24 -59
-18 -79 -15 -269 6 -393 9 -49 22 -135 29 -190 8 -61 30 -147 55 -220 78 -227
78 -227 79 -427 1 -101 3 -203 6 -228 15 -138 37 -305 40 -311 3 -3 9 -39 16
-80 11 -72 57 -256 78 -311 13 -34 9 -35 -21 -5 -55 52 -100 120 -163 246
-103 206 -149 374 -200 731 -38 268 -54 427 -55 565 0 50 -1 160 -2 245 -1 85
-2 180 -2 210 -1 139 47 587 80 750 13 63 53 197 79 263 5 12 2 17 -12 17 -25
0 -53 -78 -93 -265 -6 -27 -17 -81 -26 -120 -16 -71 -27 -153 -43 -325 -17
-169 -20 -233 -26 -446 -7 -240 -13 -267 -87 -399 -123 -218 -230 -382 -378
-578 -58 -77 -114 -152 -125 -167 -26 -34 -108 -133 -160 -190 -22 -25 -48
-56 -58 -70 -10 -14 -15 -19 -12 -13 3 7 10 40 16 73 25 157 197 635 287 801
46 83 85 179 74 179 -4 0 -12 -4 -18 -8 -12 -8 -106 -187 -143 -272 -13 -30
-36 -82 -51 -115 -37 -81 -133 -366 -164 -490 -50 -199 -85 -386 -101 -541
-16 -151 -25 -885 -13 -967 5 -32 4 -46 -2 -42 -12 8 -93 129 -124 185 -12 21
-34 63 -50 92 -55 101 -137 314 -156 403 -51 252 -63 355 -62 570 0 337 41
652 118 915 59 201 77 254 131 375 67 151 85 186 115 232 30 45 22 67 -11 34
-34 -34 -157 -292 -205 -429 -25 -72 -50 -141 -57 -153 -6 -12 -12 -31 -14
-43 -5 -30 -54 -254 -66 -298 -22 -82 -49 -418 -49 -608 0 -235 18 -386 71
-608 40 -167 63 -230 149 -407 53 -109 71 -173 95 -340 21 -144 64 -413 72
-445 6 -23 5 -24 -11 -11 -24 20 -142 193 -174 255 -15 29 -43 82 -62 117 -65
121 -138 351 -171 534 -31 180 -32 506 0 740 25 187 26 218 9 213 -37 -13 -71
-306 -71 -613 0 -230 2 -260 25 -375 15 -69 32 -177 38 -240 7 -63 23 -149 36
-190 30 -95 30 -102 -2 -65 -136 162 -216 303 -284 506 -52 156 -64 267 -55
517 4 125 3 182 -4 182 -6 0 -14 -12 -18 -27 -10 -35 -10 -557 -1 -600 14 -62
-7 -32 -35 50 -69 201 -108 376 -142 647 -19 146 -19 233 2 395 8 72 16 148
17 169 4 151 -165 -121 -217 -349 -62 -267 -62 -268 -62 -501 0 -243 5 -235
-55 -93 -94 225 -144 571 -120 829 7 69 13 126 14 127 1 1 50 7 110 12 59 6
126 15 149 21 79 21 362 113 390 127 16 8 31 12 35 9 3 -3 -11 -66 -31 -138
-46 -167 -67 -277 -67 -348 1 -49 2 -53 14 -37 8 10 17 39 21 65 3 26 20 103
36 172 16 69 37 159 45 200 9 41 22 86 30 101 15 30 68 72 78 62 3 -3 6 5 6
20 l0 26 -70 -41 c-39 -22 -105 -55 -148 -73 -92 -38 -407 -129 -426 -122 -7
3 -35 -1 -62 -8 -27 -7 -107 -15 -179 -19 -106 -5 -127 -4 -111 6 10 7 39 28
64 46 25 19 59 42 75 53 38 23 346 308 443 409 78 82 160 179 244 290 30 40
67 87 81 104 14 17 67 94 117 171 85 132 116 195 95 195 -13 0 -191 -163 -245
-225 -75 -85 -192 -264 -253 -390 l-59 -120 -163 -161 c-89 -89 -164 -159
-167 -157 -11 11 49 168 157 413 125 285 325 630 509 879 46 61 77 115 90 155
42 128 223 439 311 534 25 25 27 32 14 32 -50 0 -228 -274 -326 -502 -11 -27
-22 -48 -24 -48 -2 0 -2 35 0 78 2 42 6 166 9 275 l7 197 -194 0 -194 0 -1
-35 c0 -18 3 -32 8 -29 4 3 8 -8 8 -23 0 -16 5 -34 12 -41 7 -7 8 -12 4 -12
-5 0 -3 -6 3 -14 9 -10 8 -16 -4 -26 -11 -9 -12 -16 -5 -25 7 -9 5 -16 -7 -26
-14 -12 -16 -12 -8 0 5 10 4 12 -3 7 -7 -4 -12 -14 -12 -22 0 -8 -5 -14 -11
-14 -6 0 -9 6 -6 13 3 8 -4 14 -16 15 -12 0 -23 6 -25 12 -3 7 -9 7 -20 -2
-11 -10 -16 -10 -19 -1 -2 7 -11 9 -19 6 -8 -3 -14 0 -14 7 0 6 -5 8 -12 4 -9
-5 -9 -2 1 9 12 15 11 17 -13 17 -16 0 -25 -4 -21 -10 3 -5 1 -10 -5 -10 -7 0
-10 7 -7 15 4 8 1 17 -5 21 -7 4 -6 9 3 15 11 7 11 9 -3 9 -16 0 -19 15 -5 37
5 8 0 10 -19 7 -16 -3 -23 -1 -19 6 3 5 21 11 38 11 24 1 26 3 9 6 -20 4 -21
6 -7 20 9 8 13 18 10 21 -3 4 -10 0 -15 -8 -8 -13 -10 -12 -10 3 0 9 5 17 11
17 5 0 7 5 4 10 -4 6 -137 10 -366 10 -238 0 -358 -3 -354 -10z m692 -41 c-2
-24 -13 -25 -26 -1 -7 14 -6 18 9 19 13 1 18 -5 17 -18z m228 -609 c3 -5 1
-10 -4 -10 -6 0 -11 5 -11 10 0 6 2 10 4 10 3 0 8 -4 11 -10z m461 -392 c-8
-13 -33 -49 -53 -81 -32 -50 -158 -232 -170 -247 -2 -2 -9 2 -14 10 -9 12 -10
11 -5 -4 7 -21 -11 -49 -27 -39 -6 3 -7 1 -3 -6 7 -10 -35 -71 -82 -120 -8 -8
-31 -38 -53 -68 -22 -29 -42 -53 -44 -53 -3 0 3 16 12 35 9 19 21 35 26 35 5
0 7 6 4 13 -3 7 1 21 9 32 8 10 14 26 14 36 0 37 165 255 278 367 114 111 139
133 108 90z m-1452 -55 c3 -4 15 -8 25 -10 10 -1 49 -20 87 -41 38 -22 78 -42
89 -46 12 -3 29 -21 40 -38 10 -18 21 -35 25 -38 3 -3 20 -27 37 -55 80 -129
101 -196 73 -230 -18 -21 -22 -20 -65 24 -22 22 -43 37 -47 35 -4 -3 -21 2
-37 10 -21 11 -31 25 -36 52 -3 20 -3 40 2 43 26 19 34 40 23 61 -9 17 -14 19
-25 10 -24 -20 -72 5 -134 68 -32 33 -64 61 -71 64 -18 6 -22 98 -5 98 7 0 15
-3 19 -7z m2920 -629 l7 -72 -144 -163 c-136 -155 -186 -206 -366 -378 -41
-38 -73 -73 -70 -75 17 -17 499 485 561 583 7 12 16 21 19 21 4 0 10 -28 14
-62 8 -77 26 -187 60 -377 15 -78 25 -145 23 -146 -2 -2 -42 0 -90 4 -48 5
-150 4 -226 0 -121 -7 -204 -18 -436 -60 -28 -4 -51 -7 -53 -5 -2 2 9 17 24
32 39 41 152 178 189 230 45 64 65 84 77 77 5 -3 7 -1 3 5 -3 6 46 88 110 184
64 95 125 191 136 213 11 22 48 87 82 145 l61 105 7 -95 c3 -52 9 -127 12
-166z m4103 90 c24 -27 70 -83 104 -124 155 -191 560 -610 669 -693 62 -47
134 -116 127 -123 -12 -12 -164 49 -262 105 -142 82 -326 244 -428 378 -37 49
-62 58 -47 17 6 -14 27 -47 47 -72 40 -50 204 -212 215 -212 16 0 30 -78 38
-220 17 -297 -4 -456 -103 -794 l-52 -179 -17 149 c-9 82 -35 230 -59 329 -38
162 -43 198 -49 360 -10 243 -60 532 -131 765 -11 35 -27 98 -35 140 -9 41
-17 80 -19 85 -2 12 -14 39 -49 118 -30 67 -33 83 -8 46 9 -14 36 -48 59 -75z
m-2702 -235 c132 -182 171 -229 342 -403 l177 -181 -47 -9 c-53 -9 -76 1 -214
100 -94 68 -299 258 -320 297 -8 16 -17 27 -20 24 -9 -10 13 -38 117 -143 98
-101 244 -219 331 -268 l40 -23 -29 -12 c-33 -14 -128 -108 -166 -165 -26 -39
-36 -83 -15 -70 6 3 32 12 57 19 26 7 85 24 132 38 47 14 119 33 160 42 41 9
88 21 104 26 40 12 34 14 101 -36 33 -25 99 -61 148 -81 73 -31 100 -49 165
-111 42 -41 110 -102 150 -136 39 -34 72 -64 72 -68 0 -3 -19 -3 -42 1 -24 5
-108 16 -188 25 -80 9 -158 18 -175 20 -109 13 -283 16 -310 5 -58 -22 -134
-91 -165 -148 -39 -72 -31 -106 10 -41 33 54 99 113 158 142 46 23 20 24 482
-13 137 -11 282 -35 314 -52 12 -6 59 -36 106 -66 136 -88 278 -158 292 -144
9 9 7 17 -9 34 -26 29 -46 68 -39 75 3 3 30 -6 59 -21 62 -30 67 -31 67 -12 0
18 -37 41 -101 64 -51 17 -52 18 -89 102 -20 47 -53 119 -72 160 -53 112 -87
188 -114 259 -13 36 -29 71 -36 78 -16 20 -8 23 53 14 61 -8 72 -17 164 -136
22 -28 65 -79 95 -114 30 -35 79 -91 109 -125 29 -33 117 -128 195 -210 140
-148 141 -149 146 -202 3 -30 4 -54 3 -54 -2 0 -64 42 -138 93 -199 135 -184
125 -162 100 10 -12 81 -63 157 -114 l139 -92 -5 -121 c-5 -130 -17 -287 -39
-511 -8 -77 -16 -186 -19 -242 -6 -107 -13 -145 -53 -311 -14 -57 -22 -106
-19 -110 17 -16 211 259 301 426 81 151 109 201 111 199 2 -1 -21 -77 -50
-167 -63 -196 -69 -220 -57 -220 5 0 18 15 29 33 11 17 61 91 111 162 50 72
91 135 91 141 0 7 20 50 45 97 25 46 55 122 66 168 12 46 26 90 32 97 45 56
249 63 366 11 90 -39 180 -109 215 -168 64 -108 71 -143 71 -376 0 -230 0
-231 -71 -407 -76 -187 -387 -723 -574 -988 -85 -121 -196 -203 -339 -251 -96
-33 -166 -37 -251 -14 -30 8 -74 15 -97 15 -23 0 -44 3 -46 8 -2 4 15 48 39
97 51 108 81 192 71 202 -12 11 -24 -7 -72 -117 -181 -408 -270 -542 -450
-676 -135 -100 -201 -146 -254 -176 -31 -17 -85 -51 -120 -75 -35 -24 -67 -43
-72 -43 -4 0 -36 -23 -70 -50 -35 -28 -99 -70 -143 -94 -94 -52 -391 -179
-456 -196 -25 -6 -92 -29 -150 -50 -58 -22 -125 -44 -150 -50 -87 -20 -275
-62 -320 -71 -25 -4 -76 -15 -115 -24 -213 -46 -328 -3 -735 276 -25 17 -107
72 -183 122 -77 51 -163 108 -192 127 -29 19 -72 53 -96 74 -39 36 -41 41 -25
50 10 6 61 39 115 72 53 34 131 84 174 110 90 57 223 142 357 229 52 34 121
77 153 96 32 19 67 44 78 55 19 21 20 24 5 52 -17 33 -71 82 -90 82 -7 0 -17
-10 -23 -23 -11 -23 -60 -55 -546 -351 -89 -54 -200 -122 -247 -151 -130 -81
-116 -83 -234 37 -164 167 -253 305 -323 497 -48 133 -149 538 -178 711 -13
80 -41 242 -63 360 -22 118 -43 242 -47 275 -9 86 -84 539 -101 610 -7 33 -14
64 -14 68 0 5 36 -37 80 -92 45 -56 87 -101 95 -101 17 0 19 14 5 39 -24 46
-51 249 -50 385 0 77 2 141 3 143 2 2 30 6 63 9 l59 5 -23 -23 c-15 -17 -22
-36 -22 -64 1 -70 39 -217 80 -304 22 -47 31 -74 21 -60 -44 55 -121 254 -121
312 0 10 -7 18 -16 18 -14 0 -15 -8 -9 -47 18 -126 75 -247 159 -339 79 -86
118 -105 282 -135 102 -19 154 -22 369 -22 250 0 390 13 446 43 44 24 2 29
-111 14 -149 -21 -563 -24 -670 -5 -146 25 -144 24 -204 110 -31 43 -64 99
-75 123 -23 55 -51 211 -51 288 0 48 -3 58 -21 66 -19 9 -18 11 18 36 63 44
144 90 148 86 3 -2 6 -65 9 -139 5 -188 48 -318 137 -414 43 -47 128 -95 166
-95 37 0 85 24 126 64 45 45 67 87 98 186 21 67 24 94 24 248 l0 173 65 -6
c187 -19 286 -48 312 -93 9 -15 30 -94 47 -177 55 -261 63 -295 73 -301 17
-11 20 4 9 58 -11 56 -32 418 -25 429 2 4 21 -2 41 -12 40 -20 73 -25 73 -10
0 18 -114 109 -183 146 -39 21 -102 47 -141 57 -147 40 -599 33 -786 -12 -102
-24 -193 -59 -277 -106 -84 -47 -97 -46 -89 9 3 23 10 131 16 240 16 299 36
432 73 484 13 18 48 54 79 81 53 47 59 49 148 62 101 14 316 4 510 -25 52 -8
132 -20 178 -26 45 -7 80 -14 77 -17 -2 -3 2 -10 9 -16 8 -6 28 -47 46 -91 17
-44 49 -110 71 -146 21 -36 39 -69 39 -73 0 -5 18 -30 41 -57 22 -27 39 -49
36 -49 -3 0 -24 16 -48 36 -112 93 -194 108 -457 80 -162 -17 -242 -36 -462
-111 -74 -26 -147 -50 -161 -53 -35 -9 -86 -69 -71 -84 8 -8 24 -2 59 20 69
44 128 67 287 112 254 72 481 108 601 95 56 -6 154 -50 171 -76 3 -5 24 -21
46 -35 22 -14 65 -46 95 -70 56 -46 113 -62 97 -26 -55 121 -140 440 -122 457
3 3 18 1 33 -5 32 -12 92 -16 101 -7 3 3 -4 20 -16 37 -12 17 -25 43 -29 57
-4 15 -14 29 -22 31 -12 5 -12 3 0 -11 20 -25 -2 -20 -31 6 -63 58 -76 93 -87
236 -6 74 -11 182 -11 240 l1 106 43 -100 c43 -98 121 -246 188 -355 43 -71
53 -99 72 -206 22 -129 116 -389 188 -519 71 -130 174 -269 251 -342 84 -80
94 -73 48 34 -48 112 -102 293 -87 293 2 0 28 -16 57 -35 30 -19 60 -35 68
-35 8 0 -12 16 -45 36 -32 19 -60 40 -62 45 -2 5 -9 9 -16 9 -7 0 -18 11 -24
25 -13 28 -2 34 18 10 7 -8 49 -37 94 -65 44 -27 117 -79 160 -115 44 -36 88
-71 99 -77 11 -6 44 -30 74 -54 82 -67 291 -159 312 -138 7 6 -14 60 -74 194
-105 236 -136 309 -165 390 -67 185 -147 434 -179 560 -21 82 -74 353 -75 385
-1 11 -4 25 -8 30 -12 19 -40 239 -35 273 4 19 2 30 -4 27 -5 -4 -9 4 -9 16 0
23 27 -9 145 -172z m-3344 -432 c-10 -9 -11 -8 -5 6 3 10 9 15 12 12 3 -3 0
-11 -7 -18z m4725 -30 c28 -29 74 -97 74 -109 0 -5 -17 -8 -37 -6 -35 3 -37 5
-48 53 -7 28 -16 58 -20 68 -10 24 6 21 31 -6z m-2946 -130 c14 -18 17 -28 9
-25 -8 3 -19 14 -25 26 -7 14 -14 18 -24 12 -8 -5 -22 -4 -33 2 -14 7 -17 7
-13 -1 10 -15 -7 -14 -23 2 -11 10 -12 9 -6 -2 6 -11 4 -13 -9 -8 -10 4 -36 8
-59 9 -40 1 -39 2 13 8 30 4 76 7 102 7 40 0 50 -4 68 -30z m239 20 c13 4 14
3 1 -5 -8 -6 -19 -8 -25 -5 -5 4 -1 -3 9 -15 11 -12 25 -22 32 -22 7 0 15 -4
18 -8 2 -4 -7 -7 -22 -6 -42 2 -44 3 -36 17 6 9 4 9 -7 1 -8 -6 -32 -11 -54
-12 -29 -2 -36 0 -25 7 12 8 10 10 -7 8 -12 0 -19 -5 -17 -9 3 -4 0 -8 -5 -8
-6 0 -11 5 -11 10 0 14 -33 13 -48 -2 -8 -8 -12 -9 -12 -1 0 6 -3 18 -6 26 -4
12 0 14 17 10 16 -5 20 -3 14 6 -6 10 -2 11 16 5 13 -4 43 -8 66 -7 24 0 40
-3 37 -8 -3 -5 -1 -9 4 -9 11 0 33 25 28 32 -1 3 1 2 7 -2 5 -5 17 -6 26 -3z
m-486 -14 c-7 -2 -19 -2 -25 0 -7 3 -2 5 12 5 14 0 19 -2 13 -5z m5 -20 c-10
-2 -26 -2 -35 0 -10 3 -2 5 17 5 19 0 27 -2 18 -5z m197 -3 c-3 -5 -12 -10
-18 -10 -7 0 -6 4 3 10 19 12 23 12 15 0z m3094 -15 c2 -3 -14 -5 -37 -5 -23
0 -42 4 -42 9 0 9 69 5 79 -4z m-956 -12 c-7 -2 -19 -2 -25 0 -7 3 -2 5 12 5
14 0 19 -2 13 -5z m81 -24 c15 -17 25 -34 21 -37 -3 -4 -10 0 -15 8 -7 12 -12
12 -22 2 -6 -6 -18 -12 -26 -12 -11 0 -10 3 2 15 18 18 12 42 -12 48 -13 4
-12 5 4 6 12 0 33 -12 48 -30z m-1969 11 c3 -5 1 -10 -4 -10 -6 0 -11 5 -11
10 0 6 2 10 4 10 3 0 8 -4 11 -10z m108 -10 c3 -11 3 -20 1 -20 -2 0 -8 9 -14
20 -6 11 -7 20 -2 20 6 0 12 -9 15 -20z m-43 0 c20 -6 21 -8 5 -8 -11 0 -29 3
-40 8 -25 11 1 11 35 0z m1695 0 c-3 -5 -12 -10 -18 -10 -7 0 -6 4 3 10 19 12
23 12 15 0z m-2565 -35 c-13 -14 -26 -23 -28 -20 -3 3 -16 -10 -29 -27 -12
-18 -23 -28 -23 -23 0 16 52 76 74 85 31 13 32 12 6 -15z m1253 -84 c-3 -5
-73 29 -74 37 -10 52 -6 53 35 10 23 -24 40 -45 39 -47z m1239 69 c-12 -11
-24 -20 -28 -20 -4 0 1 9 11 20 10 11 23 20 28 20 6 0 1 -9 -11 -20z m146 -11
c-3 -8 -7 -3 -11 10 -4 17 -3 21 5 13 5 -5 8 -16 6 -23z m-93 -19 c16 0 17 -2
5 -10 -24 -15 -37 -12 -43 11 -4 17 -3 19 6 10 6 -6 20 -11 32 -11z m-55 -23
c10 -3 7 -6 -8 -6 -12 -1 -34 -8 -47 -17 -33 -22 -32 -11 2 20 15 14 30 22 33
17 3 -4 12 -11 20 -14z m-1899 -1310 c-13 -12 -20 -15 -16 -7 14 26 28 41 33
35 3 -3 -5 -16 -17 -28z m4070 -94 c-8 -15 -10 -15 -11 -2 0 17 10 32 18 25 2
-3 -1 -13 -7 -23z m-5007 -368 c54 -77 80 -103 118 -117 6 -3 22 -90 63 -358
21 -133 50 -292 82 -445 14 -66 29 -140 33 -165 5 -25 13 -58 19 -73 26 -68
10 -53 -92 81 -117 155 -240 456 -277 680 -16 96 -41 423 -40 506 1 25 -6 33
94 -109z m6752 -360 c8 -21 34 -19 35 3 1 9 5 2 9 -16 11 -47 2 -75 -22 -69
-11 3 -21 0 -25 -9 -10 -26 -31 -15 -34 19 -6 51 1 87 17 87 8 0 17 -7 20 -15z
m-8380 -781 c-5 -12 -2 -15 11 -10 15 5 15 4 -1 -9 -19 -15 -19 -15 -1 -15 18
0 17 -2 -4 -16 -18 -13 -25 -14 -34 -4 -9 10 -9 11 1 6 6 -4 12 -3 12 3 0 5
-5 11 -10 13 -6 2 -4 12 5 26 19 26 30 29 21 6z m299 6 c3 -5 1 -10 -4 -10 -6
0 -11 5 -11 10 0 6 2 10 4 10 3 0 8 -4 11 -10z m-35 -7 c0 -1 -9 -7 -20 -13
-16 -8 -20 -8 -20 4 0 9 8 14 20 13 11 -1 20 -2 20 -4z m1670 -105 c0 -4 6 -8
14 -8 21 0 24 -8 51 -113 12 -50 26 -101 30 -112 19 -51 111 -244 131 -276 13
-20 20 -40 16 -44 -4 -4 -2 -5 4 -3 6 1 32 -25 58 -59 25 -35 42 -63 37 -63
-6 0 -13 5 -16 10 -4 6 -10 8 -15 5 -14 -8 10 -52 37 -70 12 -9 24 -25 24 -38
l2 -22 4 22 c3 16 10 22 23 20 27 -4 72 -48 66 -64 -3 -7 0 -15 6 -19 7 -4 8
-3 4 4 -12 19 6 14 30 -9 13 -12 20 -28 17 -40 -5 -19 -18 -25 -26 -11 -2 4
-2 2 -1 -5 2 -7 -18 -22 -44 -35 -41 -20 -145 -88 -179 -118 -17 -15 -16 -62
2 -86 20 -26 19 -34 -5 -34 -11 0 -20 1 -20 3 -1 15 -29 77 -30 65 0 -19 -40
-26 -40 -8 0 6 -4 10 -10 10 -5 0 -10 -7 -10 -15 0 -8 3 -14 8 -12 10 3 12 -7
11 -45 0 -20 -3 -27 -7 -18 -10 22 -33 24 -26 2 5 -15 4 -15 -8 -1 -14 16 -78
22 -75 6 1 -5 -8 -11 -20 -13 -24 -4 -88 49 -78 66 3 5 -1 10 -9 10 -9 0 -17
6 -18 13 0 6 -2 17 -2 22 -1 6 -5 16 -10 23 -31 51 -50 287 -26 331 5 10 12
47 16 82 3 35 7 65 9 67 1 2 -1 19 -5 38 -5 21 -4 34 2 34 6 0 6 6 -1 14 -7 9
-8 17 -2 20 5 3 6 18 2 33 -4 14 -4 49 0 77 3 28 4 53 0 56 -5 4 -7 20 -12 90
-1 8 -7 40 -13 70 -13 59 -13 144 -1 173 4 9 15 17 25 17 10 0 21 7 24 17 5
13 11 10 31 -17 14 -19 25 -38 25 -42z m-238 38 c5 3 16 -4 25 -15 12 -17 18
-20 29 -10 15 13 17 9 8 -15 -3 -9 -10 -13 -15 -10 -5 3 -4 -7 1 -21 12 -32
12 -38 2 -31 -4 3 -8 -13 -9 -35 0 -22 -5 -45 -11 -52 -6 -6 -12 -26 -15 -43
-3 -17 -10 -41 -16 -52 -6 -11 -11 -32 -11 -46 0 -14 -3 -26 -7 -26 -5 0 -9
-11 -9 -24 -2 -30 -26 -86 -37 -86 -5 0 -5 -5 -1 -11 3 -6 2 -14 -3 -18 -17
-11 -50 -94 -45 -113 2 -10 13 -18 23 -18 10 0 21 -4 24 -10 3 -5 -3 -10 -14
-10 -20 0 -41 -43 -27 -57 3 -4 6 2 6 13 0 15 2 16 9 5 7 -10 4 -19 -7 -27
-14 -10 -15 -17 -6 -31 7 -10 19 -17 28 -17 9 1 14 -2 11 -6 -3 -5 -1 -11 5
-15 5 -3 10 -14 10 -25 0 -10 7 -21 16 -24 9 -4 14 -9 11 -13 -4 -3 2 -17 13
-30 10 -13 16 -31 13 -39 -3 -8 0 -14 6 -14 6 0 11 -11 11 -25 0 -14 -4 -25
-10 -25 -6 0 -6 -9 0 -26 8 -19 7 -31 -1 -41 -9 -10 -9 -20 0 -40 9 -19 9 -28
1 -33 -7 -4 -11 -18 -10 -31 1 -13 2 -35 1 -49 -1 -21 -3 -22 -12 -10 -9 12
-10 11 -6 -7 3 -13 0 -21 -6 -20 -6 1 -13 -13 -17 -30 -5 -20 -4 -33 2 -33 6
0 5 -6 -1 -14 -10 -11 -8 -17 6 -26 17 -11 17 -11 0 -6 -56 18 -71 18 -81 4
-6 -8 -20 -20 -31 -26 -28 -15 -29 -51 -2 -62 12 -5 16 -9 10 -9 -7 -1 -13 -7
-13 -13 0 -17 -94 -59 -145 -65 -22 -3 -49 -11 -60 -17 -11 -5 -22 -11 -25
-11 -34 -4 -103 -32 -121 -48 -13 -13 -36 -21 -56 -21 -18 0 -33 -4 -33 -8 0
-4 -9 -8 -20 -8 -11 0 -20 -3 -20 -8 0 -12 -82 -51 -135 -63 -27 -6 -68 -20
-91 -30 -22 -11 -59 -19 -82 -19 -22 0 -43 -4 -46 -9 -3 -4 -18 -7 -32 -5 -18
2 -33 -5 -44 -18 -9 -12 -28 -23 -41 -25 -13 -1 -51 -16 -84 -32 -33 -16 -89
-41 -125 -56 -36 -15 -79 -33 -97 -41 -17 -8 -37 -14 -45 -14 -7 0 -27 -9 -45
-20 -34 -20 -207 -80 -234 -80 -11 0 -16 12 -18 41 -1 23 -2 45 -3 48 -1 3 4
20 11 36 7 17 13 56 13 87 -1 31 3 71 8 88 5 16 5 30 0 30 -5 0 -18 26 -30 58
-19 50 -20 63 -11 107 8 37 19 55 41 70 16 11 31 27 33 37 6 21 33 15 59 -14
18 -21 34 -9 24 17 -3 8 -1 15 4 15 9 0 14 -15 11 -33 -1 -5 3 -6 8 -3 5 3 7
15 4 26 -4 15 -2 19 10 14 9 -3 13 -12 10 -20 -7 -19 17 -18 45 2 12 8 27 12
32 9 6 -3 10 -1 10 4 0 6 6 11 14 11 21 0 30 18 17 34 -8 10 -8 16 2 25 8 6
16 9 18 7 4 -4 10 55 12 129 1 17 9 37 19 46 10 9 16 18 14 20 -2 2 4 45 13
96 10 51 14 98 10 104 -4 7 -1 22 6 33 8 11 11 24 6 30 -5 6 -11 34 -13 61 -3
28 -3 44 -1 38 7 -19 21 -16 19 5 0 9 4 16 11 15 6 -1 17 4 23 12 8 9 8 15 2
15 -6 0 -13 -6 -15 -12 -3 -7 -4 -2 -3 12 3 35 14 50 30 44 8 -3 17 0 21 6 4
6 15 8 26 5 13 -4 19 -2 19 9 0 9 -6 16 -12 17 -10 0 -10 2 -1 5 14 6 7 31
-15 57 -8 9 -10 17 -5 17 6 0 13 -7 17 -15 3 -8 11 -15 17 -15 8 0 9 4 0 13
-6 8 -8 16 -5 20 3 3 -5 8 -18 13 l-23 7 25 10 c14 6 29 9 33 8 5 -1 5 4 1 11
-13 20 -13 38 -3 64 7 19 4 29 -11 44 -22 22 -40 26 -40 9 0 -5 -4 -7 -10 -4
-5 3 -10 15 -10 25 0 10 -7 26 -16 34 -14 15 -13 16 15 16 32 0 44 19 14 21
-17 1 -17 2 0 6 18 5 23 28 7 38 -12 8 -9 57 5 71 12 13 40 23 81 29 92 15
347 70 361 78 6 4 68 13 139 22 71 9 136 18 144 20 8 2 49 7 90 10 41 3 93 8
115 11 22 2 74 6 115 8 92 6 190 26 191 41 0 5 3 4 6 -3 2 -6 9 -9 15 -6z
m-1635 -66 c10 0 10 -4 -4 -18 -22 -23 -53 -35 -53 -22 0 6 -9 10 -20 10 -25
0 -25 5 -1 31 12 13 24 18 32 13 9 -5 11 -2 6 12 -5 15 -3 14 9 -3 9 -13 23
-23 31 -23z m137 -213 c-1 -9 4 -17 12 -17 8 0 14 -5 14 -11 0 -6 14 -9 32 -7
35 3 46 -12 23 -35 -8 -9 -15 -20 -15 -26 0 -6 -5 -11 -12 -11 -17 0 -4 -10
19 -14 10 -2 36 -11 56 -20 33 -13 40 -13 39 4 0 3 8 6 18 6 18 0 18 -2 3 -18
-16 -18 -46 -20 -70 -5 -8 5 -13 4 -13 -2 0 -14 -47 -14 -55 -1 -4 6 -11 8
-16 5 -5 -4 -9 -1 -9 5 0 6 -4 8 -10 5 -5 -3 -10 -2 -10 2 0 5 -15 8 -32 7
-29 -1 -128 23 -103 25 25 2 -16 22 -48 23 -20 1 -35 6 -34 12 1 6 -5 10 -14
10 -12 -1 -14 5 -11 25 10 51 29 57 157 56 69 -1 80 -3 79 -18z m3296 -89 c26
-28 25 -45 -2 -59 -13 -6 -45 -26 -73 -44 -27 -18 -111 -71 -185 -118 -74 -47
-166 -105 -205 -130 -38 -25 -97 -62 -130 -83 -33 -21 -106 -68 -163 -106 -57
-37 -106 -68 -109 -68 -5 0 -30 -16 -212 -134 -56 -37 -109 -65 -117 -62 -8 3
-14 17 -14 31 0 14 -4 25 -10 25 -41 0 53 80 165 140 35 19 218 133 255 160
15 10 51 30 80 45 30 15 80 45 110 65 30 20 73 46 95 58 22 11 77 44 121 74
141 92 356 225 366 227 4 1 16 -9 28 -21z m2696 2 c13 0 24 -5 24 -11 0 -7
-11 -9 -27 -6 -15 3 -36 1 -45 -4 -13 -7 -18 -6 -18 4 0 19 12 29 28 22 7 -3
25 -5 38 -5z m-5886 -10 c0 -5 -2 -10 -4 -10 -3 0 -8 5 -11 10 -3 6 -1 10 4
10 6 0 11 -4 11 -10z m5854 -45 c-9 -14 -20 -25 -23 -25 -4 0 -24 -16 -44 -37
-20 -20 -37 -33 -37 -29 0 16 41 86 51 86 6 0 7 5 3 12 -4 7 -3 8 4 4 7 -4 20
-2 29 3 29 17 34 12 17 -14z m-6118 -180 c12 -8 24 -12 27 -9 3 3 8 -4 12 -15
3 -12 11 -21 16 -21 11 0 82 -77 87 -94 2 -6 -1 -4 -7 4 -6 8 -11 10 -11 5 0
-6 6 -17 12 -23 10 -10 8 -14 -10 -18 -12 -4 -19 -10 -16 -15 3 -5 0 -9 -6 -9
-7 0 -9 -7 -6 -16 3 -8 2 -13 -3 -10 -5 3 -12 -2 -15 -11 -4 -9 -1 -20 6 -25
10 -6 10 -8 -1 -8 -11 0 -12 -3 -4 -11 8 -8 6 -21 -8 -46 -11 -20 -17 -43 -14
-54 8 -24 -11 -25 -24 -2 -8 14 -12 15 -25 4 -9 -7 -13 -18 -9 -24 4 -6 1 -7
-6 -3 -7 5 -10 14 -7 22 3 8 0 13 -6 11 -14 -2 -19 41 -6 49 5 3 4 11 -2 19
-6 8 -11 33 -12 57 0 24 -4 53 -9 65 -4 12 -9 41 -10 65 -2 24 -7 46 -13 51
-8 5 -7 10 2 16 8 4 13 14 12 22 -6 42 17 52 56 24z m394 -75 c0 -5 -4 -10
-10 -10 -5 0 -10 5 -10 10 0 6 5 10 10 10 6 0 10 -4 10 -10z m5515 -37 c-4
-27 -10 -131 -14 -233 -6 -137 -13 -201 -27 -247 -10 -35 -23 -63 -27 -63 -5
0 -6 4 -2 9 3 5 1 12 -5 16 -6 4 -8 10 -5 14 2 5 -2 22 -10 39 -12 22 -16 69
-17 179 l-2 148 42 65 c23 35 48 77 55 92 17 40 21 35 12 -19z m1663 -5 c15
-15 16 -28 2 -28 -5 0 -10 6 -10 14 0 8 -6 17 -12 19 -7 3 -8 6 -2 6 5 1 15
-4 22 -11z m-5308 -18 c0 -5 -2 -10 -4 -10 -3 0 -8 5 -11 10 -3 6 -1 10 4 10
6 0 11 -4 11 -10z m40 -42 c0 -6 -6 -5 -15 2 -8 7 -15 14 -15 16 0 2 7 1 15
-2 8 -4 15 -11 15 -16z m3445 -84 c-25 -42 -28 -45 -43 -30 -14 14 -12 19 24
50 21 19 41 32 43 30 2 -1 -9 -24 -24 -50z m-71 -40 c-6 -23 -4 -25 15 -19 18
5 14 -7 -31 -92 -69 -131 -101 -198 -123 -255 -10 -27 -24 -48 -31 -48 -17 0
-18 32 -3 47 7 7 8 17 3 25 -9 13 -8 77 2 185 6 70 24 94 55 75 15 -10 20 -8
30 11 7 12 17 25 23 29 7 5 6 8 -4 8 -14 0 47 59 63 60 4 0 4 -12 1 -26z
m2204 17 c11 -7 11 -9 -1 -14 -9 -3 -18 1 -21 9 -6 16 2 18 22 5z m56 -9 c3
-5 -1 -9 -9 -9 -8 0 -12 4 -9 9 3 4 7 8 9 8 2 0 6 -4 9 -8z m-83 -69 c12 -16
12 -17 -2 -6 -9 7 -20 9 -24 5 -5 -4 -5 -1 -1 6 9 16 11 15 27 -5z m45 -36 c2
-18 -21 -43 -30 -29 -4 7 -3 24 3 50 3 11 25 -7 27 -21z m-2442 -162 c-7 -77
-20 -246 -29 -375 l-16 -235 -38 -40 c-20 -22 -45 -53 -55 -68 -10 -17 -23
-26 -31 -23 -10 3 -12 0 -8 -11 5 -12 2 -15 -10 -10 -9 3 -19 1 -23 -5 -4 -7
-3 -8 4 -4 7 4 12 1 12 -10 0 -13 -3 -14 -13 -5 -8 6 -18 7 -22 3 -5 -4 -1 5
8 21 21 32 12 36 -14 6 -10 -12 -23 -18 -30 -13 -8 4 -9 3 -5 -4 10 -17 -3
-15 -20 3 -9 9 -11 15 -4 15 6 0 8 5 5 10 -10 17 -26 0 -20 -21 7 -21 5 -22
-19 -13 -8 3 -12 12 -10 19 4 10 -1 12 -15 8 -12 -3 -21 -12 -21 -20 0 -8 -4
-11 -10 -8 -5 3 -10 0 -10 -8 0 -23 -27 -28 -33 -6 -3 12 -11 17 -21 13 -9 -3
-13 -11 -10 -18 3 -6 -7 2 -21 18 -26 29 -28 29 -41 11 -8 -10 -14 -16 -14
-12 0 4 -16 1 -35 -7 -19 -8 -35 -11 -35 -5 0 10 -85 7 -96 -4 -4 -4 -15 -7
-23 -7 -9 0 -22 -9 -29 -20 -7 -11 -18 -20 -24 -20 -9 0 -9 3 0 12 15 15 16
38 2 38 -5 0 -10 -6 -10 -14 0 -8 -5 -18 -12 -22 -7 -4 -8 -3 -4 4 12 19 -12
14 -33 -7 -11 -11 -22 -17 -25 -14 -3 3 -10 -6 -16 -21 -10 -26 -10 -26 -37
-9 -16 9 -30 18 -32 20 -3 2 6 2 20 0 26 -5 79 27 79 46 0 7 -4 6 -10 -3 -6
-10 -10 -11 -10 -2 0 23 -18 12 -25 -15 l-8 -28 -7 25 c-5 17 -8 19 -9 7 -1
-13 -7 -16 -26 -13 -13 3 -29 7 -34 10 -5 4 -13 1 -16 -5 -4 -5 -13 -8 -21 -5
-8 3 -11 0 -7 -9 4 -11 10 -12 25 -4 11 6 22 8 26 5 10 -11 9 -46 -1 -53 -6
-3 -7 -1 -4 4 4 6 -3 13 -16 17 -35 9 -55 7 -54 -6 1 -33 -5 -44 -23 -44 -12
0 -19 6 -17 15 1 9 -6 16 -18 17 -11 1 -27 3 -35 5 -10 3 -15 -3 -14 -18 1
-26 -14 -31 -22 -8 -4 8 -10 15 -15 15 -5 0 -17 7 -28 16 -21 18 -131 27 -154
12 -14 -9 -13 -9 26 -12 52 -5 39 -15 -18 -13 -42 2 -60 -2 -66 -13 -13 -26
-22 -55 -20 -65 1 -5 -3 -4 -11 3 -11 11 -10 15 2 22 13 9 13 11 0 20 -13 8
-12 11 4 23 10 8 16 20 13 28 -4 10 -6 8 -6 -5 -1 -16 -3 -17 -18 -5 -9 8 -14
9 -11 4 4 -6 -2 -22 -13 -35 l-20 -25 6 25 c4 17 3 21 -3 12 -5 -8 -21 -15
-35 -15 -20 -2 -24 -6 -21 -24 3 -13 0 -23 -6 -23 -5 0 -10 7 -10 15 0 8 -4
15 -10 15 -5 0 -10 -7 -10 -15 0 -18 -16 -20 -24 -2 -5 10 -7 10 -12 0 -3 -7
-13 -13 -22 -13 -15 -1 -14 -3 2 -15 11 -8 15 -15 9 -15 -7 0 -15 5 -18 10 -4
6 -11 8 -16 5 -21 -13 -7 11 18 31 20 16 23 23 13 29 -8 5 -11 4 -7 -2 8 -13
-39 -46 -53 -38 -5 3 -12 -5 -16 -19 -4 -16 -11 -23 -20 -19 -8 3 -14 1 -14
-4 0 -13 -53 -12 -62 1 -12 18 -23 -4 -24 -45 0 -47 -17 -48 -20 0 -2 30 -16
50 -36 51 -15 0 -8 -29 10 -39 13 -7 14 -13 5 -22 -12 -12 -37 -3 -28 11 8 14
-24 20 -53 10 -22 -8 -24 -8 -12 2 8 7 16 21 16 31 2 14 -1 15 -11 7 -11 -9
-13 -1 -12 41 0 33 -4 54 -11 57 -7 2 -10 8 -6 13 3 5 -2 9 -10 9 -11 0 -14 9
-12 38 2 20 7 44 11 53 3 10 2 20 -3 23 -5 3 -7 16 -5 28 2 13 -3 50 -13 83
-20 73 -28 181 -13 190 6 5 6 12 -3 22 -7 8 20 -1 59 -21 38 -20 76 -36 82
-36 7 0 9 -5 5 -12 -4 -7 -3 -8 4 -4 18 11 61 -4 55 -20 -3 -8 0 -14 6 -14 7
0 14 7 17 15 5 12 9 13 20 4 17 -14 84 -23 84 -11 0 4 8 8 18 9 46 2 100 11
111 17 6 4 21 4 32 1 15 -5 19 -4 15 4 -10 15 7 14 23 -1 11 -11 13 -10 8 5
-5 14 -1 17 24 17 17 0 39 5 50 11 11 5 43 10 72 10 74 0 127 9 127 21 0 6 -8
7 -17 3 -10 -3 -31 -8 -48 -11 -16 -2 4 7 45 21 41 14 93 27 115 29 22 2 47 6
55 9 59 23 101 33 106 26 8 -14 24 -10 24 5 0 21 19 30 35 16 12 -10 16 -9 20
2 4 9 16 14 31 12 25 -2 34 11 12 19 -7 2 14 11 47 21 33 9 75 23 93 31 18 8
39 15 47 15 8 0 15 4 15 9 0 5 21 17 48 27 26 10 58 24 72 31 14 7 32 13 41
13 9 0 22 7 29 15 7 8 18 15 25 15 6 0 37 18 69 40 31 22 68 43 82 46 14 4 28
13 31 20 3 8 21 24 41 36 21 12 50 32 65 45 16 13 38 23 51 23 12 0 42 18 66
39 25 22 45 39 46 38 0 -1 -5 -65 -12 -142z m-2847 100 c28 -25 28 -25 3 -17
-30 11 -50 5 -50 -14 0 -8 -6 -14 -14 -14 -7 0 -19 -7 -26 -15 -7 -8 -19 -15
-28 -15 -12 0 -9 7 11 28 15 15 27 33 27 40 0 10 27 31 42 32 4 0 20 -11 35
-25z m-397 -84 c5 -11 10 -25 10 -32 0 -18 -27 7 -33 31 -7 26 9 26 23 1z
m575 -51 c19 -21 19 -21 -1 -14 -13 4 -9 -2 11 -20 17 -14 36 -25 43 -26 6 0
12 -5 12 -11 0 -5 5 -7 12 -3 7 5 5 11 -7 21 -16 11 -17 13 -3 13 9 0 20 -5
24 -11 4 -6 57 -44 118 -84 62 -40 118 -81 126 -91 9 -11 10 -15 3 -10 -26 15
-12 -6 33 -49 28 -28 44 -51 40 -60 -3 -8 -1 -17 4 -20 14 -9 12 -23 -2 -22
-31 1 -48 -4 -48 -14 0 -5 5 -7 10 -4 6 3 10 -1 10 -9 0 -9 -7 -16 -16 -16
-11 0 -14 -5 -10 -16 3 -9 6 -29 6 -45 0 -27 3 -30 23 -24 17 5 19 4 7 -4 -8
-6 -15 -16 -15 -23 0 -7 -8 -12 -17 -12 -10 1 -14 -4 -11 -12 3 -8 11 -14 18
-14 7 0 19 -8 26 -17 10 -12 11 -15 1 -9 -7 4 -19 3 -25 -3 -7 -5 -34 -9 -60
-7 -35 2 -47 -1 -47 -11 0 -10 -7 -12 -22 -8 -17 5 -19 4 -9 -3 15 -11 66 -7
113 8 29 9 49 -4 22 -14 -14 -5 -14 -8 0 -21 8 -8 22 -12 30 -9 9 3 16 1 16
-5 0 -6 -14 -11 -31 -11 -17 0 -28 4 -24 10 3 6 -1 7 -9 4 -9 -3 -16 -1 -16 5
0 15 -106 7 -125 -9 -8 -7 -26 -9 -40 -6 -18 5 -23 3 -19 -7 4 -10 -5 -14 -37
-13 -25 1 -43 -3 -46 -11 -3 -7 -9 -10 -14 -7 -5 3 -7 10 -4 15 4 5 1 9 -5 9
-7 0 -9 -8 -5 -19 4 -14 1 -18 -17 -17 -13 1 -26 -3 -30 -9 -5 -6 -8 -2 -8 8
0 11 -6 17 -12 14 -7 -2 -13 -12 -13 -21 0 -10 -7 -23 -16 -29 -9 -7 -14 -17
-12 -24 6 -16 -47 -39 -87 -37 -19 2 -43 3 -54 3 -14 1 -17 7 -14 26 3 13 0
26 -6 28 -8 3 -8 8 1 18 9 11 8 18 -2 33 -11 14 -11 24 -4 38 8 14 8 23 0 31
-15 15 -14 30 1 21 8 -5 9 -2 5 9 -4 11 -1 17 8 17 17 0 19 9 5 30 -6 9 -5 17
3 22 9 6 9 10 0 16 -6 4 -13 23 -15 42 -2 19 -9 36 -15 36 -7 1 -18 2 -25 3
-6 0 -8 4 -5 8 4 3 2 12 -5 20 -9 11 -7 12 8 8 13 -4 12 -2 -3 6 -25 13 -30
29 -10 29 8 0 7 4 -3 10 -13 9 -13 10 0 11 8 1 20 1 25 -1 6 -1 5 4 -2 11 -9
9 -16 9 -26 1 -8 -7 -17 -9 -20 -5 -4 3 -7 1 -7 -5 0 -7 4 -12 10 -12 5 0 7
-7 4 -15 -4 -8 -11 -12 -18 -9 -6 3 -2 -2 8 -10 18 -15 15 -21 -9 -16 -5 1 -4
-4 3 -11 17 -18 15 -34 -3 -19 -12 10 -15 10 -15 -3 0 -11 7 -14 26 -11 18 3
25 1 21 -8 -2 -7 -11 -12 -21 -10 -11 2 -16 -4 -16 -19 0 -15 -5 -19 -15 -15
-18 7 -39 -29 -32 -55 4 -15 2 -17 -13 -9 -28 15 -30 13 -20 -15 6 -17 6 -25
-1 -25 -6 0 -7 -5 -3 -12 5 -7 3 -8 -5 -3 -7 4 -10 16 -8 27 4 15 1 18 -14 13
-11 -4 -19 -2 -19 5 0 6 -10 8 -26 4 -18 -5 -25 -3 -20 4 3 6 -11 18 -33 28
-22 10 -39 22 -38 28 1 6 -9 12 -23 14 -23 3 -26 7 -26 44 0 23 -5 43 -11 45
-8 3 -8 14 -2 36 5 19 5 33 -1 37 -6 3 -4 16 4 31 7 13 11 41 8 60 -4 35 -3
36 60 67 34 17 72 33 83 35 11 2 27 7 35 10 45 20 97 33 108 30 6 -3 12 0 12
6 0 6 9 11 20 11 11 0 28 4 38 9 16 8 53 24 112 49 14 6 34 12 45 14 12 2 19
11 19 21 -1 9 2 14 7 12 4 -3 20 -3 34 1 25 6 25 7 8 27 -17 19 -17 20 2 9 11
-5 29 -20 40 -32z m2706 -171 c-6 -16 -10 -18 -10 -7 -1 22 12 55 16 42 2 -6
-1 -22 -6 -35z m422 14 c9 -3 17 -9 17 -14 0 -5 7 -9 15 -9 45 0 -5 -69 -77
-106 -32 -16 -171 -119 -199 -147 -8 -7 -36 -28 -62 -46 -27 -18 -63 -45 -80
-60 -18 -15 -41 -31 -51 -35 -18 -6 -19 -2 -12 121 7 116 10 134 45 216 32 75
40 87 52 75 16 -15 60 -22 134 -22 35 1 64 9 94 26 37 21 50 24 75 16 17 -5
39 -12 49 -15z m-2566 -345 c-2 -18 -4 -6 -4 27 0 33 2 48 4 33 2 -15 2 -42 0
-60z m-803 6 c3 -8 2 -12 -4 -9 -6 3 -10 10 -10 16 0 14 7 11 14 -7z m813 -94
c1 -11 -2 -22 -8 -25 -7 -5 -7 18 0 43 3 8 7 -1 8 -18z m-34 -13 c3 -8 -4 -14
-19 -15 -13 -1 -24 3 -24 9 0 6 7 9 15 5 8 -3 15 -1 15 4 0 14 7 12 13 -3z
m2096 -201 c-3 -118 -7 -217 -9 -220 -3 -3 -71 -18 -150 -35 -80 -17 -171 -37
-203 -46 -32 -8 -72 -15 -88 -15 l-30 0 20 26 c11 14 86 94 167 177 143 147
239 259 263 305 28 54 33 23 30 -192z m-2204 175 c-3 -6 -11 -11 -17 -11 -6 0
-6 6 2 15 14 17 26 13 15 -4z m-882 -59 c-19 -5 -16 -18 7 -28 14 -7 17 -13
10 -24 -8 -13 -10 -12 -10 3 0 9 -5 17 -11 17 -7 0 -9 -10 -5 -24 8 -32 -3
-59 -21 -52 -8 3 -11 1 -8 -4 3 -6 3 -15 -1 -22 -5 -8 -10 -6 -16 8 -5 13 -7
9 -4 -16 2 -19 5 -39 7 -45 2 -5 -5 -25 -15 -44 -12 -22 -14 -36 -7 -40 6 -4
3 -11 -9 -19 -12 -7 -20 -8 -20 -2 0 5 3 10 8 10 4 0 7 11 7 25 0 33 -9 32
-25 -2 -14 -30 -28 -15 -14 15 4 9 6 26 5 38 -1 11 6 27 15 35 16 12 17 12 9
-1 -8 -13 -6 -13 8 -1 13 10 14 18 6 32 -12 24 -20 25 -13 2 5 -17 5 -17 -9
-1 -8 10 -17 15 -20 11 -4 -3 -2 9 3 27 11 38 7 35 45 48 29 10 29 10 5 12
-23 1 -24 2 -8 14 10 7 15 16 11 19 -3 4 2 9 11 13 9 3 16 12 16 20 0 8 9 14
20 14 12 0 21 7 21 18 1 9 4 1 8 -18 4 -24 2 -36 -6 -38z m-435 23 c-2 -16 -8
-25 -20 -25 -12 0 -16 5 -11 18 6 14 22 31 30 32 2 0 2 -11 1 -25z m1446 4
c-29 -11 -66 -11 -59 1 4 6 9 9 13 6 4 -2 16 0 27 4 11 4 24 5 29 2 5 -3 1 -9
-10 -13z m2275 6 c127 -22 244 -70 296 -121 64 -62 76 -111 85 -334 4 -102 5
-191 2 -198 -15 -41 -462 -276 -607 -319 -27 -8 -93 -31 -145 -50 -167 -62
-592 -162 -804 -188 -132 -17 -449 -45 -508 -45 l-38 0 0 73 c0 61 -3 77 -20
92 -25 23 -25 36 -1 57 17 14 20 37 26 194 3 99 9 187 12 197 2 10 16 23 31
28 59 22 264 49 488 64 132 8 259 17 284 20 25 3 95 10 155 16 95 9 415 72
436 85 4 2 49 15 101 28 85 22 270 93 343 133 44 24 114 81 132 110 12 18 13
27 4 36 -8 8 -11 8 -11 0 0 -29 -253 -183 -301 -183 -8 0 -19 -3 -22 -6 -4 -4
-30 -17 -59 -28 l-53 -22 0 188 0 188 45 0 c25 0 83 -7 129 -15z m-2235 -167
c4 -66 16 -167 26 -222 11 -56 20 -103 20 -105 0 -2 -8 0 -17 4 -10 3 -52 13
-93 20 -41 8 -113 23 -160 35 -47 12 -123 30 -170 40 -47 10 -128 37 -180 59
-90 37 -95 41 -93 68 l2 28 -20 -24 c-10 -13 -19 -29 -19 -36 0 -48 382 -169
675 -215 90 -14 103 -19 162 -67 l43 -34 -1 -165 c0 -144 3 -170 21 -210 16
-38 18 -53 10 -83 -5 -20 -10 -49 -10 -66 0 -56 -6 -58 -116 -40 -278 44 -644
176 -823 296 -98 66 -144 110 -131 123 18 18 11 44 -19 68 l-28 23 12 150 c14
161 21 191 56 224 28 26 194 111 216 111 18 0 29 3 178 49 133 42 341 86 421
90 l31 1 7 -122z m1581 62 c-3 -5 6 -12 20 -16 27 -7 34 -24 9 -24 -8 0 -12
-4 -9 -10 3 -6 -1 -7 -9 -4 -9 3 -16 1 -16 -5 0 -6 5 -11 10 -11 6 0 10 -4 10
-8 0 -5 -7 -9 -15 -9 -8 0 -15 3 -15 7 0 13 -35 7 -52 -8 -22 -19 -24 -9 -2
12 8 9 11 16 5 16 -6 0 3 14 21 31 28 26 29 29 8 18 -23 -11 -24 -11 -11 4 14
18 57 24 46 7z m170 0 c3 -5 1 -10 -4 -10 -6 0 -11 5 -11 10 0 6 2 10 4 10 3
0 8 -4 11 -10z m-329 -19 c-4 -6 -13 -8 -21 -5 -8 3 -20 -4 -27 -15 -7 -12
-20 -21 -28 -21 -12 0 -13 2 -1 9 7 5 10 14 7 20 -7 10 13 15 52 14 6 -1 12 4
12 10 0 6 3 8 6 4 3 -3 3 -10 0 -16z m89 -3 c-4 -10 -14 -14 -26 -11 -10 3
-16 9 -13 14 3 5 9 7 14 4 5 -3 12 0 15 6 10 15 17 5 10 -13z m215 -9 c0 -10
-5 -19 -11 -19 -6 0 -9 7 -5 15 3 8 1 15 -4 15 -6 0 -10 4 -10 10 0 5 7 7 15
4 8 -4 15 -15 15 -25z m-270 11 c0 -5 -5 -10 -11 -10 -5 0 -7 5 -4 10 3 6 8
10 11 10 2 0 4 -4 4 -10z m380 -4 c0 -7 -7 -19 -15 -26 -10 -9 -15 -9 -15 -1
0 6 4 11 10 11 5 0 7 7 4 15 -4 8 -1 15 5 15 6 0 11 -6 11 -14z m-168 -41 c3
-13 1 -22 -3 -19 -9 5 -13 44 -5 44 2 0 6 -11 8 -25z m-2447 -37 c-22 -11 -62
-39 -90 -61 -42 -34 -42 -27 0 18 17 18 99 64 115 64 8 0 -3 -9 -25 -21z
m1592 -3 c0 -8 -6 -15 -13 -15 -15 0 -26 15 -17 24 12 11 30 6 30 -9z m737 0
c-4 -8 -11 -15 -16 -15 -6 0 -5 6 2 15 7 8 14 15 16 15 2 0 1 -7 -2 -15z m204
-10 c-3 -3 -9 2 -12 12 -6 14 -5 15 5 6 7 -7 10 -15 7 -18z m-78 11 c0 -2 -8
-10 -17 -17 -16 -13 -17 -12 -4 4 13 16 21 21 21 13z m-970 -39 c0 -4 -9 -3
-20 3 -11 6 -20 8 -20 5 0 -4 -5 -3 -10 0 -6 4 -8 10 -5 15 6 9 55 -11 55 -23z
m145 -6 c-9 -16 -25 -3 -18 15 4 10 9 12 15 6 6 -6 7 -15 3 -21z m123 11 c2
-7 -5 -12 -17 -12 -14 0 -19 5 -14 15 6 17 25 15 31 -3z m-218 -2 c0 -5 -7 -7
-15 -4 -8 4 -15 8 -15 10 0 2 7 4 15 4 8 0 15 -4 15 -10z m-3360 -4 c0 -2 -6
-9 -14 -15 -11 -9 -16 -9 -22 0 -4 7 -3 9 4 5 6 -3 13 -2 17 4 6 10 15 14 15
6z m3160 -5 c0 -5 -3 -17 -6 -26 -5 -12 -9 -14 -14 -4 -5 7 -6 18 -3 26 6 15
23 18 23 4z m-3117 -18 c-7 -2 -19 -2 -25 0 -7 3 -2 5 12 5 14 0 19 -2 13 -5z
m3077 -27 c0 -3 -4 -8 -10 -11 -5 -3 -10 -1 -10 4 0 6 5 11 10 11 6 0 10 -2
10 -4z m-3725 -26 c-3 -5 -12 -10 -18 -10 -7 0 -6 4 3 10 19 12 23 12 15 0z
m2287 -12 c-7 -7 -12 -8 -12 -2 0 14 12 26 19 19 2 -3 -1 -11 -7 -17z m-1687
2 c3 -5 2 -10 -4 -10 -5 0 -13 5 -16 10 -3 6 -2 10 4 10 5 0 13 -4 16 -10z
m2800 0 c3 -5 1 -10 -4 -10 -6 0 -11 5 -11 10 0 6 2 10 4 10 3 0 8 -4 11 -10z
m80 -15 c6 0 16 4 23 8 7 5 12 4 12 -2 0 -11 -7 -13 -35 -13 -30 0 -36 2 -29
13 3 6 9 7 13 2 3 -5 11 -8 16 -8z m70 -5 c3 -6 -1 -7 -9 -4 -18 7 -21 14 -7
14 6 0 13 -4 16 -10z m-3700 -20 c3 -6 -1 -7 -9 -4 -18 7 -21 14 -7 14 6 0 13
-4 16 -10z m868 -18 c9 -8 17 -20 17 -26 0 -6 -7 -3 -14 6 -7 10 -15 15 -18
13 -3 -3 -13 4 -23 15 -18 20 -18 21 1 14 10 -4 27 -14 37 -22z m1327 -28 c0
-8 -4 -12 -10 -9 -5 3 -10 13 -10 21 0 8 5 12 10 9 6 -3 10 -13 10 -21z m2730
1 c-13 -14 -26 -22 -29 -19 -3 3 5 14 19 24 34 27 38 25 10 -5z m-4065 -5 c3
-5 1 -10 -4 -10 -6 0 -11 5 -11 10 0 6 2 10 4 10 3 0 8 -4 11 -10z m2729 -91
c-3 -5 -10 -7 -15 -3 -5 3 -7 10 -3 15 3 5 10 7 15 3 5 -3 7 -10 3 -15z m61
-29 c4 -6 -9 -10 -32 -9 -34 1 -35 2 -13 9 35 11 38 11 45 0z m-2080 -42 c14
-2 21 -12 23 -33 2 -17 8 -35 13 -41 8 -9 20 -91 20 -134 0 -337 -5 -456 -22
-478 -10 -13 -15 -30 -12 -38 4 -10 -2 -14 -22 -14 -15 0 -24 -4 -20 -10 3 -6
-1 -7 -9 -4 -9 3 -14 10 -11 14 3 5 -4 6 -15 3 -12 -3 -20 -2 -19 3 7 38 -11
44 -41 12 l-20 -22 0 25 c0 13 -4 20 -8 14 -11 -15 -44 -15 -38 0 2 7 -4 30
-15 51 -19 38 -25 85 -12 97 8 8 41 102 49 137 10 49 10 80 0 84 -6 2 -3 5 8
5 15 1 16 4 6 16 -6 8 -9 23 -5 35 3 11 3 20 -2 20 -4 0 -9 12 -10 27 -1 19 1
22 8 12 7 -11 9 -11 9 -1 0 7 4 11 8 8 5 -3 9 2 9 10 0 9 -6 13 -16 9 -12 -4
-12 -2 2 9 19 14 24 33 31 105 2 27 10 47 20 53 9 5 16 16 16 25 0 9 6 13 15
9 10 -3 15 1 15 11 0 15 1 15 13 1 6 -9 21 -18 32 -20z m2052 -24 c-3 -3 -12
-4 -19 -1 -8 3 -5 6 6 6 11 1 17 -2 13 -5z m-3057 -104 c0 -5 -6 -10 -14 -10
-8 0 -17 -6 -19 -12 -4 -8 -6 -7 -6 4 -1 15 11 25 32 27 4 1 7 -3 7 -9z m3140
-80 c0 5 7 10 16 10 11 0 14 -6 9 -20 -4 -12 -1 -27 5 -35 10 -12 9 -15 -9
-15 -30 0 -77 -26 -85 -46 -4 -9 -9 -14 -13 -10 -4 3 4 17 17 30 16 18 21 32
16 50 -4 16 -2 26 4 26 6 0 8 5 4 11 -4 8 0 8 15 0 14 -8 21 -8 21 -1z m-3217
-17 c-7 -3 -13 -12 -13 -21 0 -15 -2 -15 -10 -2 -14 22 -12 26 13 27 12 0 16
-1 10 -4z m1775 -43 c2 -6 10 -10 19 -10 12 0 12 -2 -1 -16 -9 -8 -16 -22 -16
-30 0 -20 -18 -17 -23 4 -4 15 -5 15 -6 0 0 -9 6 -23 14 -32 20 -19 19 -23 -7
-30 -18 -5 -20 -8 -9 -15 9 -6 10 -11 2 -15 -6 -4 -11 -2 -11 5 0 7 -8 6 -24
-4 -22 -15 -24 -14 -35 9 -7 15 -7 23 -1 19 5 -3 10 -1 10 4 0 6 -5 11 -11 11
-6 0 -9 6 -6 13 2 6 9 12 15 12 6 0 17 6 23 12 10 10 8 12 -9 8 -14 -2 -23 2
-27 16 -7 22 2 42 16 34 5 -4 12 0 15 8 6 16 67 14 72 -3z m-1783 -39 c-6 -5
-25 10 -25 20 0 5 6 4 14 -3 8 -7 12 -15 11 -17z m45 19 c0 -5 -4 -10 -10 -10
-5 0 -10 5 -10 10 0 6 5 10 10 10 6 0 10 -4 10 -10z m3275 -57 c-2 -6 0 -13 4
-15 5 -2 12 -18 16 -35 6 -29 4 -34 -20 -43 -14 -5 -35 -10 -46 -10 -18 0 -19
4 -13 37 4 21 14 44 21 52 10 9 13 25 9 45 l-6 31 20 -25 c11 -14 18 -30 15
-37z m-1398 -10 c-3 -10 -5 -2 -5 17 0 19 2 27 5 18 2 -10 2 -26 0 -35z m1309
32 c-15 -12 -20 -30 -22 -81 -4 -90 -14 -95 -14 -6 0 70 14 102 43 102 7 0 3
-7 -7 -15z m-1561 -5 c3 -5 -1 -10 -10 -10 -9 0 -13 5 -10 10 3 6 8 10 10 10
2 0 7 -4 10 -10z m-259 -14 c18 5 24 2 24 -11 0 -15 -2 -16 -17 -4 -17 13 -17
13 -3 -6 8 -11 15 -21 16 -23 1 -1 13 3 27 9 15 7 24 15 22 19 -8 13 21 6 35
-9 13 -13 12 -14 -3 -8 -9 3 -19 2 -22 -3 -4 -6 1 -10 9 -10 28 0 17 -17 -14
-23 -22 -5 -30 -12 -30 -28 l0 -22 -22 21 c-13 11 -35 25 -50 31 -19 7 -26 17
-26 33 2 27 20 56 26 39 2 -6 14 -8 28 -5z m408 -1 c3 -8 1 -15 -4 -15 -6 0
-10 7 -10 15 0 8 2 15 4 15 2 0 6 -7 10 -15z m1283 -37 c-3 -8 -6 -5 -6 6 -1
11 2 17 5 13 3 -3 4 -12 1 -19z m-2683 -4 c3 -8 2 -12 -4 -9 -6 3 -10 10 -10
16 0 14 7 11 14 -7z m1501 -112 c-4 -35 -9 -61 -12 -58 -3 2 -1 44 3 93 5 48
10 75 12 58 2 -16 1 -58 -3 -93z m-102 57 c-6 -6 -15 -3 -24 7 -12 16 -12 17
4 11 12 -4 17 -1 18 11 1 15 2 14 6 -2 3 -10 1 -22 -4 -27z m-333 -24 c0 -5
-5 -3 -10 5 -5 8 -10 20 -10 25 0 6 5 3 10 -5 5 -8 10 -19 10 -25z m-1515 -15
c3 -5 1 -10 -4 -10 -6 0 -11 5 -11 10 0 6 2 10 4 10 3 0 8 -4 11 -10z m3243
-47 c1 -21 -2 -51 -7 -68 -8 -26 -9 -22 -10 31 -1 50 4 74 14 74 0 0 2 -17 3
-37z m-1368 -13 c10 0 20 -6 23 -12 6 -17 -12 -50 -22 -43 -5 3 -11 -1 -14 -9
-4 -9 -14 -12 -26 -9 -15 4 -21 1 -21 -11 0 -10 -4 -15 -9 -11 -6 3 -14 -2
-19 -10 -7 -14 -11 -14 -33 4 l-24 19 28 -5 c35 -7 74 32 68 69 0 4 6 5 15 1
13 -5 15 -1 10 18 -3 13 -3 18 0 12 3 -7 14 -13 24 -13z m1510 10 c0 -5 -2
-10 -4 -10 -3 0 -8 5 -11 10 -3 6 -1 10 4 10 6 0 11 -4 11 -10z m-3229 -27 c7
-10 10 -15 5 -11 -5 4 -17 3 -27 -3 -21 -11 -22 -9 -13 15 8 21 18 20 35 -1z
m1584 -113 c3 -5 1 -10 -4 -10 -6 0 -11 5 -11 10 0 6 2 10 4 10 3 0 8 -4 11
-10z"/>
<path d="M1469 7983 c-13 -16 -12 -17 4 -4 9 7 17 15 17 17 0 8 -8 3 -21 -13z"/>
<path d="M1400 7909 c0 -5 5 -7 10 -4 6 3 10 8 10 11 0 2 -4 4 -10 4 -5 0 -10
-5 -10 -11z"/>
<path d="M1267 7739 c-21 -27 -36 -49 -34 -49 7 0 80 91 76 94 -2 2 -21 -18
-42 -45z"/>
<path d="M7150 7552 c0 -12 19 -26 26 -19 2 2 -2 10 -11 17 -9 8 -15 8 -15 2z"/>
<path d="M3590 6675 c0 -8 4 -15 10 -15 5 0 7 7 4 15 -4 8 -8 15 -10 15 -2 0
-4 -7 -4 -15z"/>
<path d="M3620 6653 c0 -4 25 -39 56 -78 66 -83 64 -81 64 -69 0 5 -27 42 -60
82 -33 41 -60 70 -60 65z"/>
<path d="M3173 6593 c9 -2 23 -2 30 0 6 3 -1 5 -18 5 -16 0 -22 -2 -12 -5z"/>
<path d="M6010 6596 c0 -2 7 -7 16 -10 8 -3 12 -2 9 4 -6 10 -25 14 -25 6z"/>
<path d="M3075 6565 c-39 -17 -21 -18 25 0 19 7 28 14 20 14 -8 0 -28 -6 -45
-14z"/>
<path d="M2920 6509 c-132 -51 -277 -132 -415 -230 -88 -62 -178 -139 -172
-146 8 -7 87 39 87 51 0 38 350 259 482 305 57 20 121 50 103 50 -5 0 -44 -14
-85 -30z"/>
<path d="M4652 6420 c0 -19 2 -27 5 -17 2 9 2 25 0 35 -3 9 -5 1 -5 -18z"/>
<path d="M4690 6234 c0 -41 140 -182 171 -172 6 2 -8 14 -32 26 -40 21 -72 56
-121 130 -10 15 -18 22 -18 16z"/>
<path d="M6200 6122 c19 -16 37 -28 39 -26 5 5 -24 29 -54 45 -11 6 -4 -2 15
-19z"/>
<path d="M6264 6072 c18 -21 92 -70 82 -54 -2 4 -26 23 -53 42 -31 21 -41 26
-29 12z"/>
<path d="M4310 5925 c0 -2 10 -10 23 -16 20 -11 21 -11 8 4 -13 16 -31 23 -31
12z"/>
<path d="M5150 5854 c-8 -1 -37 -6 -64 -9 -44 -6 -55 -13 -117 -78 -38 -39
-69 -75 -69 -80 0 -6 21 -7 50 -3 61 8 61 6 20 -93 -35 -85 -100 -284 -100
-306 0 -43 34 0 105 133 43 81 86 158 96 172 9 14 25 49 34 78 18 54 43 74 30
25 -3 -16 -9 -89 -12 -163 -9 -252 46 -417 159 -476 22 -12 50 -15 99 -12 61
3 75 8 126 44 51 36 64 52 106 135 62 123 77 187 84 347 l6 132 43 0 c76 0
355 -40 459 -65 56 -14 130 -36 165 -50 34 -14 78 -28 97 -31 31 -6 35 -4 31
12 -4 25 -92 77 -186 109 -43 15 -111 40 -152 55 -101 38 -250 68 -395 81 -66
5 -147 14 -180 20 -102 17 -393 32 -435 23z m175 -764 c3 -5 1 -10 -4 -10 -6
0 -11 5 -11 10 0 6 2 10 4 10 3 0 8 -4 11 -10z"/>
<path d="M6368 5543 c-8 -10 -23 -49 -32 -87 -41 -166 -110 -299 -202 -388
-67 -64 -118 -84 -248 -97 -257 -26 -576 4 -808 75 -86 26 -107 27 -93 4 11
-17 48 -29 210 -65 304 -69 545 -79 817 -37 96 15 127 25 173 53 75 45 160
137 217 235 64 109 80 153 76 209 -4 67 -24 69 -33 3 -9 -71 -53 -179 -104
-255 -61 -92 -67 -86 -10 11 39 67 54 106 71 183 27 128 10 207 -34 156z"/>
<path d="M7362 5253 c-28 -5 -91 -67 -125 -120 -31 -50 -148 -310 -177 -393
-27 -80 -101 -245 -182 -405 l-60 -120 17 -53 c12 -35 16 -72 13 -112 l-4 -60
-82 -80 c-75 -74 -132 -157 -132 -194 0 -24 39 -39 87 -33 51 5 80 28 100 77
24 56 39 69 81 63 31 -4 41 0 63 24 65 69 118 223 119 341 0 87 -32 127 -112
138 -53 7 -52 7 -39 32 6 9 24 51 42 92 47 108 51 112 124 100 33 -5 90 -10
128 -10 l67 0 36 55 c39 62 71 132 84 185 7 30 8 25 9 -35 1 -64 -14 -151 -34
-199 -6 -14 -5 -18 6 -14 23 7 46 67 59 151 32 203 -31 296 -192 285 -38 -3
-68 -4 -68 -1 0 15 82 162 92 166 7 2 24 1 38 -4 14 -4 37 -10 53 -13 34 -8
99 -65 129 -114 22 -35 23 -48 23 -202 0 -124 -5 -185 -19 -245 -21 -96 -103
-342 -122 -370 -16 -23 -18 -45 -4 -45 34 0 129 246 162 420 26 138 31 361 9
424 -27 78 -123 154 -214 171 -20 4 -37 11 -37 15 0 23 66 54 114 54 68 1 119
-26 168 -87 38 -49 39 -52 36 -116 -3 -36 -12 -94 -22 -129 -9 -34 -16 -70
-14 -80 8 -35 50 170 50 241 0 106 -24 146 -112 186 -42 19 -102 25 -158 14z
m9 -339 c18 -16 20 -27 15 -71 -8 -72 -86 -249 -121 -276 -21 -17 -229 18
-221 37 2 6 29 74 60 151 32 77 63 146 71 154 33 33 161 37 196 5z m-350 -640
c28 -25 31 -81 11 -179 -21 -96 -80 -228 -107 -239 -9 -3 -34 -6 -56 -6 -44 0
-67 -20 -85 -73 -12 -35 -44 -57 -86 -57 -26 0 -27 1 -16 28 24 54 70 113 118
149 81 61 109 154 74 253 -32 93 12 157 100 144 16 -2 38 -11 47 -20z"/>
<path d="M3690 4143 c1 -15 9 -53 20 -83 11 -30 19 -62 20 -71 0 -8 11 -38 25
-66 40 -79 114 -104 160 -53 9 10 31 56 50 103 32 82 32 86 15 102 -15 13
-186 44 -247 45 -6 0 -13 10 -15 22 -5 33 -28 35 -28 1z m67 -65 c2 -18 0 -20
-7 -8 -12 18 -13 30 -2 30 4 0 9 -10 9 -22z m153 3 c38 -4 56 -11 58 -21 2
-12 -6 -15 -38 -12 -35 4 -40 1 -40 -16 0 -15 -5 -19 -20 -15 -16 4 -18 8 -9
19 9 11 9 14 0 14 -7 0 -9 5 -5 12 5 8 2 9 -9 5 -10 -3 -17 -2 -17 3 0 6 -11
10 -24 10 -14 0 -28 5 -32 11 -5 8 6 9 37 4 24 -4 69 -10 99 -14z m-107 -58
c-4 -10 -9 -11 -19 -2 -19 15 -18 18 5 16 11 -1 17 -6 14 -14z m31 -32 c-5
-22 -1 -32 20 -49 18 -14 23 -23 15 -28 -6 -4 -16 0 -20 9 -5 9 -18 14 -29 12
-11 -2 -20 0 -20 5 0 5 -9 12 -20 15 -11 4 -18 11 -14 16 3 5 15 3 27 -6 29
-20 40 -19 27 4 -7 14 -7 22 0 26 6 4 8 11 5 16 -4 5 -2 9 4 9 6 0 8 -12 5
-29z m105 20 c13 -8 12 -16 -4 -53 -20 -45 -55 -97 -55 -82 0 5 -5 2 -11 -6
-14 -20 -8 -4 16 43 20 39 17 47 -19 60 -5 2 -6 8 -2 15 5 9 14 7 34 -5 25
-16 26 -16 14 -1 -22 27 -2 47 27 29z m-134 -91 c16 -17 35 -28 42 -26 7 3 10
-1 6 -10 -10 -26 -40 -15 -67 26 -31 47 -22 52 19 10z"/>
<path d="M7317 4072 c-22 -24 -21 -32 1 -32 21 0 56 33 45 43 -11 12 -29 8
-46 -11z"/>
<path d="M7285 3980 c-3 -5 3 -10 14 -10 12 0 21 5 21 10 0 6 -6 10 -14 10 -8
0 -18 -4 -21 -10z"/>
<path d="M7276 3908 c-20 -28 -20 -38 -1 -38 8 0 21 14 30 30 13 26 14 30 1
30 -8 0 -22 -10 -30 -22z"/>
<path d="M3790 2922 c0 -19 29 -33 81 -38 79 -8 101 -13 94 -24 -10 -16 -93
-11 -123 6 -24 15 -24 13 6 -15 33 -32 39 -32 105 -14 9 2 22 13 28 24 16 31
-4 46 -69 53 -31 4 -72 10 -89 13 -19 3 -33 1 -33 -5z"/>
<path d="M5865 6770 c3 -5 8 -10 11 -10 2 0 4 5 4 10 0 6 -5 10 -11 10 -5 0
-7 -4 -4 -10z"/>
<path d="M8711 4374 c0 -11 3 -14 6 -6 3 7 2 16 -1 19 -3 4 -6 -2 -5 -13z"/>
<path d="M2450 2750 c0 -5 5 -10 11 -10 5 0 7 5 4 10 -3 6 -8 10 -11 10 -2 0
-4 -4 -4 -10z"/>
<path d="M2537 2753 c-4 -3 -7 -11 -7 -17 0 -6 5 -5 12 2 6 6 9 14 7 17 -3 3
-9 2 -12 -2z"/>
<path d="M2489 2733 c-1 -5 -1 -12 0 -17 1 -5 -5 -6 -14 -3 -11 5 -15 0 -15
-18 0 -28 -15 -34 -24 -10 -9 25 -24 17 -18 -10 2 -14 8 -25 12 -25 12 0 40
-29 40 -41 0 -17 -22 -9 -27 11 -4 16 -9 18 -25 9 -11 -6 -17 -13 -14 -16 3
-4 0 -13 -7 -22 -11 -14 -10 -14 5 -2 10 7 15 17 12 22 -3 5 -1 9 5 9 5 0 13
-9 16 -20 7 -22 50 -28 59 -7 3 6 4 3 3 -8 -1 -15 5 -21 23 -23 19 -2 30 6 48
33 24 38 28 55 11 55 -5 0 -7 5 -4 10 3 6 1 10 -6 10 -7 0 -10 11 -6 33 3 17
3 26 0 20 -7 -19 -54 -17 -47 2 4 9 0 15 -10 15 -9 0 -17 -3 -17 -7z m31 -43
c13 -8 13 -10 -1 -10 -9 0 -20 -7 -23 -16 -3 -8 -11 -12 -17 -8 -8 5 -6 10 5
16 9 5 14 13 11 19 -8 12 6 11 25 -1z m11 -77 c-12 -20 -14 -14 -5 12 4 9 9
14 11 11 3 -2 0 -13 -6 -23z"/>
<path d="M2578 2693 c7 -3 16 -2 19 1 4 3 -2 6 -13 5 -11 0 -14 -3 -6 -6z"/>
<path d="M2603 2683 c-7 -2 -13 -12 -13 -21 1 -15 2 -16 13 -1 7 9 19 18 27
22 13 5 13 5 0 5 -8 0 -21 -2 -27 -5z"/>
<path d="M2664 2665 c2 -7 0 -16 -7 -19 -7 -2 -4 -5 7 -5 13 -1 16 4 12 16 -6
15 -5 15 13 -1 11 -10 18 -23 14 -29 -4 -6 -1 -7 6 -3 9 6 9 12 -3 25 -9 10
-14 20 -11 22 2 3 -5 6 -16 6 -14 1 -19 -3 -15 -12z"/>
<path d="M2608 2629 c-23 -13 -23 -32 -1 -27 9 2 17 11 19 21 1 9 2 17 1 17
-1 0 -10 -5 -19 -11z"/>
<path d="M2637 2589 c-9 -5 -21 -8 -26 -5 -12 8 -42 -4 -36 -14 3 -4 -6 -11
-20 -14 -16 -4 -25 -13 -25 -25 0 -11 -6 -22 -12 -24 -9 -4 -7 -6 3 -6 19 -1
71 37 65 48 -3 4 -1 13 5 21 7 12 9 12 9 -3 0 -16 2 -16 30 -2 17 9 30 20 30
25 0 12 0 12 -23 -1z"/>
<path d="M2427 2564 c-15 -16 -6 -24 16 -14 20 10 19 9 -3 -9 -20 -16 -23 -22
-12 -32 8 -9 12 -9 12 -2 0 6 7 14 16 17 13 5 14 3 7 -6 -15 -20 -24 -50 -13
-43 6 3 10 11 10 17 0 6 11 21 25 34 14 13 22 25 17 27 -16 10 -68 17 -75 11z"/>
<path d="M2405 2390 c-3 -5 -2 -10 4 -10 5 0 13 5 16 10 3 6 2 10 -4 10 -5 0
-13 -4 -16 -10z"/>
<path d="M580 3246 c0 -2 7 -7 16 -10 8 -3 12 -2 9 4 -6 10 -25 14 -25 6z"/>
<path d="M3725 3139 c-49 -27 -94 -55 -100 -61 -5 -6 19 6 55 26 36 21 84 46
108 57 39 19 52 29 35 29 -5 0 -48 -23 -98 -51z"/>
<path d="M3503 3002 c-105 -69 -113 -75 -83 -61 56 27 178 111 158 109 -2 0
-35 -22 -75 -48z"/>
<path d="M3319 2889 l-24 -20 30 17 c39 24 40 24 28 24 -6 0 -21 -9 -34 -21z"/>
<path d="M3240 2840 c-25 -16 -40 -30 -35 -30 11 0 85 48 85 55 0 8 -3 6 -50
-25z"/>
<path d="M470 2871 c0 -6 4 -13 10 -16 6 -3 7 1 4 9 -7 18 -14 21 -14 7z"/>
<path d="M6035 2619 c-4 -6 -5 -12 -2 -15 2 -3 7 2 10 11 7 17 1 20 -8 4z"/>
<path d="M4626 1964 c-5 -14 -4 -15 9 -4 17 14 19 20 6 20 -5 0 -12 -7 -15
-16z"/>
<path d="M3850 1920 c12 -12 25 -18 31 -14 6 3 -1 12 -16 20 -36 19 -39 18
-15 -6z"/>
<path d="M4466 1924 c-5 -14 -4 -15 9 -4 17 14 19 20 6 20 -5 0 -12 -7 -15
-16z"/>
<path d="M4402 1921 c-11 -6 -9 -9 7 -14 12 -3 22 1 25 9 6 16 -12 18 -32 5z"/>
<path d="M5395 1680 c10 -36 24 -48 35 -30 6 10 4 17 -8 24 -9 5 -21 14 -25
20 -5 6 -5 0 -2 -14z"/>
<path d="M5254 1683 c4 -7 2 -13 -3 -13 -15 0 -14 -17 2 -23 15 -6 17 27 2 40
-4 5 -5 2 -1 -4z"/>
<path d="M4444 1638 c-5 -13 -7 -26 -6 -30 1 -5 -9 -8 -23 -8 -29 0 -32 -12
-7 -31 15 -12 16 -12 4 2 -11 14 -9 16 12 12 14 -3 35 2 48 11 l23 16 -22 6
c-13 4 -23 11 -23 16 0 6 7 7 16 4 14 -5 15 -4 4 9 -16 19 -17 19 -26 -7z"/>
<path d="M4870 1600 c0 -6 7 -10 15 -10 8 0 15 2 15 4 0 2 -7 6 -15 10 -8 3
-15 1 -15 -4z"/>
<path d="M4230 1581 c0 -5 11 -8 25 -7 33 1 33 16 0 16 -14 0 -25 -4 -25 -9z"/>
<path d="M4470 1570 c0 -5 7 -7 15 -4 8 4 15 8 15 10 0 2 -7 4 -15 4 -8 0 -15
-4 -15 -10z"/>
<path d="M4515 1570 c-3 -5 -2 -10 4 -10 5 0 13 5 16 10 3 6 2 10 -4 10 -5 0
-13 -4 -16 -10z"/>
<path d="M4555 1570 c-3 -5 1 -10 9 -10 9 0 16 5 16 10 0 6 -4 10 -9 10 -6 0
-13 -4 -16 -10z"/>
<path d="M4590 1566 c0 -2 7 -7 16 -10 8 -3 12 -2 9 4 -6 10 -25 14 -25 6z"/>
<path d="M4653 1544 c0 -9 4 -11 12 -4 7 5 14 9 16 7 2 -1 3 0 1 2 -7 11 -29
7 -29 -5z"/>
<path d="M4290 1540 c0 -5 4 -10 9 -10 6 0 13 5 16 10 3 6 -1 10 -9 10 -9 0
-16 -4 -16 -10z"/>
<path d="M4190 1515 c0 -8 2 -15 4 -15 2 0 6 7 10 15 3 8 1 15 -4 15 -6 0 -10
-7 -10 -15z"/>
<path d="M4150 1489 c0 -5 5 -7 10 -4 6 3 10 8 10 11 0 2 -4 4 -10 4 -5 0 -10
-5 -10 -11z"/>
<path d="M3986 1441 c-3 -5 1 -11 9 -14 9 -4 12 -1 8 9 -6 16 -10 17 -17 5z"/>
<path d="M3280 2285 c0 -10 22 -29 65 -55 l40 -23 -22 24 c-23 25 -83 64 -83
54z"/>
<path d="M3275 2210 c3 -5 8 -10 11 -10 2 0 4 5 4 10 0 6 -5 10 -11 10 -5 0
-7 -4 -4 -10z"/>
<path d="M3390 2206 c0 -7 93 -57 97 -52 3 2 -15 16 -40 30 -42 25 -57 31 -57
22z"/>
<path d="M2878 2043 c7 -3 16 -2 19 1 4 3 -2 6 -13 5 -11 0 -14 -3 -6 -6z"/>
<path d="M3542 2028 c2 -6 10 -14 16 -16 7 -2 10 2 6 12 -7 18 -28 22 -22 4z"/>
<path d="M3486 1865 c-18 -14 -18 -14 1 -12 11 0 20 7 20 14 0 7 -1 13 -1 13
-1 0 -9 -7 -20 -15z"/>
<path d="M3423 1805 c0 -8 4 -12 9 -9 5 3 6 10 3 15 -9 13 -12 11 -12 -6z"/>
<path d="M3467 1804 c2 -7 13 -12 24 -11 27 2 24 14 -5 19 -17 3 -23 1 -19 -8z"/>
<path d="M3445 1790 c-3 -5 -1 -10 4 -10 6 0 11 5 11 10 0 6 -2 10 -4 10 -3 0
-8 -4 -11 -10z"/>
<path d="M3370 1731 c0 -9 -8 -11 -26 -7 -19 5 -25 3 -21 -6 4 -14 36 -12 51
3 5 5 7 12 3 16 -4 3 -7 1 -7 -6z"/>
<path d="M3245 1710 c-3 -6 1 -7 9 -4 18 7 21 14 7 14 -6 0 -13 -4 -16 -10z"/>
<path d="M3285 1710 c-3 -5 -1 -10 4 -10 6 0 11 5 11 10 0 6 -2 10 -4 10 -3 0
-8 -4 -11 -10z"/>
<path d="M3165 1670 c-3 -5 -1 -10 4 -10 6 0 11 5 11 10 0 6 -2 10 -4 10 -3 0
-8 -4 -11 -10z"/>
<path d="M3036 1584 c-4 -10 2 -14 19 -14 30 0 33 16 6 23 -12 3 -22 -1 -25
-9z"/>
<path d="M5330 1591 c0 -5 -10 -11 -22 -15 -18 -5 -20 -8 -9 -15 16 -10 63 18
54 32 -6 10 -23 9 -23 -2z"/>
<path d="M4082 897 c2 -18 7 -23 24 -19 15 3 21 9 17 18 -4 11 -8 12 -19 3
-12 -10 -13 -9 -8 5 3 9 1 16 -5 16 -6 0 -10 -10 -9 -23z"/>
<path d="M2645 850 c3 -5 10 -10 16 -10 5 0 9 5 9 10 0 6 -7 10 -16 10 -8 0
-12 -4 -9 -10z"/>
<path d="M4158 703 c7 -3 16 -2 19 1 4 3 -2 6 -13 5 -11 0 -14 -3 -6 -6z"/>
<path d="M2280 746 c0 -3 9 -10 20 -16 11 -6 20 -8 20 -6 0 3 -9 10 -20 16
-11 6 -20 8 -20 6z"/>
<path d="M2335 740 c4 -6 11 -8 16 -5 14 9 11 15 -7 15 -8 0 -12 -5 -9 -10z"/>
<path d="M2707 573 c-4 -3 -7 -13 -7 -22 0 -13 2 -13 9 -2 5 7 14 10 20 7 6
-4 11 0 11 8 0 16 -21 22 -33 9z"/>
<path d="M967 9194 c7 -3 9 -13 6 -22 -7 -18 -5 -17 16 11 12 15 11 17 -10 16
-13 0 -19 -3 -12 -5z"/>
<path d="M2270 9192 c0 -4 -25 -39 -56 -76 -114 -138 -258 -376 -239 -394 4
-4 12 1 19 12 35 57 150 239 170 268 6 9 40 51 75 95 35 43 68 84 74 91 7 9 3
12 -17 12 -14 0 -26 -4 -26 -8z"/>
<path d="M5647 9093 c176 -191 309 -358 419 -525 59 -90 109 -157 112 -150 6
20 -32 91 -120 222 -146 216 -447 560 -491 560 -14 0 9 -30 80 -107z"/>
<path d="M6650 9180 c6 -10 17 -23 24 -27 28 -16 229 -239 264 -293 20 -30 44
-64 53 -75 63 -72 285 -478 322 -586 8 -24 31 -79 51 -123 20 -43 42 -99 50
-125 8 -25 26 -77 41 -116 42 -111 71 -194 95 -272 24 -78 44 -113 56 -100 10
10 -79 285 -156 482 -166 425 -249 585 -483 929 -71 104 -281 326 -308 326
-16 0 -18 -3 -9 -20z"/>
<path d="M1098 9123 c6 -2 18 -2 25 0 6 3 1 5 -13 5 -14 0 -19 -2 -12 -5z"/>
<path d="M7370 8935 c0 -4 52 -61 115 -128 63 -67 130 -143 148 -169 91 -133
137 -205 188 -295 85 -150 143 -255 156 -283 6 -14 34 -71 63 -128 28 -56 62
-132 76 -168 13 -36 36 -89 51 -117 21 -43 80 -194 100 -259 8 -25 33 -31 33
-8 0 36 -77 242 -145 390 -78 170 -200 414 -225 450 -10 14 -33 54 -52 90 -57
106 -129 222 -168 270 -20 25 -45 59 -56 75 -32 51 -161 200 -201 231 -42 34
-83 58 -83 49z"/>
<path d="M7453 8808 c20 -48 162 -359 196 -428 46 -94 173 -312 239 -411 23
-35 80 -120 126 -189 111 -166 188 -271 194 -265 3 2 -7 22 -22 43 -14 21 -26
41 -26 45 0 5 -9 18 -21 30 -11 12 -59 78 -106 147 -47 69 -103 150 -124 180
-21 30 -45 66 -52 80 -8 14 -47 81 -87 150 -81 138 -169 308 -170 327 0 6 -20
51 -45 98 -26 50 -39 85 -31 82 8 -3 -4 23 -26 59 -37 58 -58 83 -45 52z"/>
<path d="M3065 8643 c-10 -27 -30 -75 -45 -108 -35 -75 -205 -501 -214 -535
-9 -36 28 45 86 190 27 69 72 175 99 236 27 61 49 115 49 120 0 6 8 19 18 30
10 11 19 26 19 34 0 8 3 30 7 48 11 47 0 39 -19 -15z"/>
<path d="M4430 8674 c0 -9 7 -22 15 -28 8 -6 17 -20 19 -31 3 -11 15 -40 27
-65 13 -25 22 -51 20 -59 -1 -7 2 -10 8 -7 5 4 18 -18 28 -51 10 -32 34 -92
54 -133 20 -41 42 -93 50 -115 7 -22 21 -51 30 -65 9 -14 38 -70 65 -125 26
-55 64 -125 84 -155 20 -30 74 -118 120 -195 46 -77 116 -187 154 -244 100
-146 145 -214 153 -230 4 -8 36 -53 72 -100 37 -47 97 -126 135 -176 67 -86
474 -501 483 -491 3 2 -87 96 -200 208 -117 117 -238 247 -283 307 -185 244
-244 325 -244 335 0 6 -10 22 -21 36 -44 55 -141 204 -244 375 -59 99 -116
191 -125 205 -47 66 -290 584 -290 616 0 8 -24 62 -68 152 -25 52 -42 66 -42
36z"/>
<path d="M4440 8529 c0 -39 25 -184 88 -504 8 -44 17 -74 19 -68 5 13 -9 103
-27 183 -6 25 -15 72 -20 105 -6 33 -15 83 -21 110 -5 28 -13 84 -16 125 -6
84 -23 120 -23 49z"/>
<path d="M133 8540 c-26 -15 -33 -27 -33 -50 0 -58 48 -106 95 -94 27 7 67 63
70 97 2 28 -13 59 -26 52 -5 -4 -9 -1 -9 4 0 18 -63 12 -97 -9z"/>
<path d="M7680 8532 c0 -5 10 -17 21 -28 22 -19 22 -19 10 3 -12 24 -31 39
-31 25z"/>
<path d="M520 8513 c-30 -11 -50 -37 -50 -63 0 -34 17 -50 55 -50 17 0 36 5
43 12 17 17 15 59 -4 86 -16 23 -19 24 -44 15z"/>
<path d="M5750 8243 c0 -7 4 -14 9 -17 11 -7 141 -201 161 -240 8 -16 33 -50
55 -75 39 -45 70 -89 113 -162 24 -41 112 -235 146 -324 124 -321 135 -353
146 -443 l9 -67 -4 75 c-2 55 -13 102 -40 175 -20 55 -54 147 -75 205 -52 145
-186 419 -251 515 -30 44 -90 132 -133 195 -80 117 -136 184 -136 163z"/>
<path d="M2675 7990 c-138 -99 -331 -388 -470 -704 -63 -144 -166 -440 -164
-474 1 -19 4 -9 40 108 27 90 84 244 134 360 20 47 39 92 42 100 14 35 131
232 192 325 67 101 235 285 260 285 11 0 13 -13 8 -60 -6 -69 8 -72 19 -5 6
46 -1 95 -14 95 -4 -1 -25 -14 -47 -30z"/>
<path d="M3123 7988 c3 -9 9 -32 12 -50 4 -18 22 -76 41 -128 19 -52 33 -86
31 -75 -9 40 -78 259 -84 265 -3 3 -3 -3 0 -12z"/>
<path d="M8863 7976 c-18 -11 -38 -34 -44 -50 -11 -25 -10 -30 11 -46 22 -17
27 -17 53 -3 16 8 26 17 23 20 -3 3 -2 13 3 22 5 9 4 29 -3 47 l-11 31 -32
-21z"/>
<path d="M2761 7895 c-34 -77 -50 -93 -52 -52 -1 21 -1 21 -8 -3 -4 -14 -3
-28 2 -31 5 -4 7 -12 3 -18 -4 -6 -2 -9 6 -6 16 7 92 159 87 174 -2 6 -19 -23
-38 -64z"/>
<path d="M4551 7929 c-3 -50 152 -502 204 -598 28 -51 14 -5 -28 99 -24 58
-68 179 -97 270 -78 245 -78 246 -79 229z"/>
<path d="M4198 7895 c-8 -12 73 -189 92 -200 6 -4 0 15 -14 41 -14 27 -26 54
-26 59 0 6 -6 17 -12 23 -7 7 -18 30 -23 50 -6 20 -14 32 -17 27z"/>
<path d="M8040 7870 c0 -5 5 -10 11 -10 5 0 7 5 4 10 -3 6 -8 10 -11 10 -2 0
-4 -4 -4 -10z"/>
<path d="M3401 7864 c-3 -52 249 -591 395 -844 20 -36 50 -87 66 -115 16 -27
60 -93 99 -145 39 -52 90 -124 113 -160 122 -185 463 -537 492 -507 3 3 -9 13
-28 23 -39 20 -245 227 -329 332 -57 71 -179 236 -230 312 -14 21 -38 54 -52
73 -84 111 -379 675 -461 882 -60 152 -65 162 -65 149z"/>
<path d="M5530 7805 c1 -6 10 -26 21 -45 l20 -35 -6 30 c-6 28 -35 71 -35 50z"/>
<path d="M8095 7749 c9 -17 19 -29 21 -26 7 7 -18 57 -28 57 -5 0 -1 -14 7
-31z"/>
<path d="M5620 7721 c0 -5 7 -12 16 -15 14 -5 15 -4 4 9 -14 17 -20 19 -20 6z"/>
<path d="M8110 7701 c0 -6 4 -13 10 -16 6 -3 7 1 4 9 -7 18 -14 21 -14 7z"/>
<path d="M3220 7687 c0 -7 7 -22 15 -33 13 -17 14 -16 4 14 -11 33 -19 41 -19
19z"/>
<path d="M6060 7694 c0 -16 50 -117 57 -111 3 3 1 12 -3 19 -5 7 -9 15 -9 18
-2 13 -44 84 -45 74z"/>
<path d="M5594 7653 c9 -18 18 -33 20 -33 9 0 -8 41 -22 52 -13 11 -12 8 2
-19z"/>
<path d="M5650 7676 c0 -2 7 -6 15 -10 8 -3 15 -1 15 4 0 6 -7 10 -15 10 -8 0
-15 -2 -15 -4z"/>
<path d="M5740 7601 c5 -11 15 -23 21 -27 6 -3 3 5 -6 20 -20 30 -30 35 -15 7z"/>
<path d="M1589 7510 c-22 -29 -164 -151 -304 -261 -122 -96 -227 -165 -309
-203 -44 -20 -77 -38 -74 -41 6 -7 111 44 193 93 102 61 285 202 439 338 21
19 42 34 46 34 4 0 4 -17 -1 -37 -21 -85 -17 -102 5 -23 14 47 28 95 31 108
10 30 0 28 -26 -8z"/>
<path d="M3311 7484 c0 -11 3 -14 6 -6 3 7 2 16 -1 19 -3 4 -6 -2 -5 -13z"/>
<path d="M6171 7428 c40 -100 38 -96 38 -66 1 15 -4 30 -10 33 -6 4 -8 14 -5
22 3 8 2 12 -3 9 -5 -3 -11 8 -15 24 -3 17 -10 30 -16 30 -5 0 0 -24 11 -52z"/>
<path d="M1752 7357 c-60 -96 -198 -384 -189 -394 2 -2 17 25 32 59 97 216
136 292 145 278 7 -12 10 -11 15 5 4 11 15 41 25 68 11 26 17 47 15 47 -2 0
-21 -28 -43 -63z"/>
<path d="M6216 7317 c3 -10 9 -15 12 -12 3 3 0 11 -7 18 -10 9 -11 8 -5 -6z"/>
<path d="M7084 7115 c0 -62 3 -81 12 -74 6 5 10 30 8 62 l-4 52 20 -40 c11
-22 20 -46 20 -52 0 -7 5 -13 11 -13 6 0 8 9 3 23 -10 32 -52 115 -62 121 -4
2 -8 -33 -8 -79z"/>
<path d="M1521 7104 c0 -11 3 -14 6 -6 3 7 2 16 -1 19 -3 4 -6 -2 -5 -13z"/>
<path d="M6423 6991 c1 -54 5 -97 10 -94 11 6 9 193 -2 193 -6 0 -9 -42 -8
-99z"/>
<path d="M1507 7031 c-4 -18 -7 -43 -6 -55 1 -11 5 -1 10 24 5 25 7 49 6 55
-2 5 -7 -5 -10 -24z"/>
<path d="M7115 7013 c21 -161 27 -279 27 -558 -1 -176 -6 -369 -11 -430 -18
-187 -14 -240 17 -202 21 25 35 295 36 709 0 230 4 410 9 400 5 -11 6 -9 2 8
-2 14 -5 30 -5 35 0 6 -5 3 -10 -5 -8 -12 -10 -8 -11 15 -1 17 -2 36 -2 42 1
7 -3 11 -7 8 -5 -3 -11 -1 -15 5 -3 5 -13 10 -21 10 -11 0 -13 -9 -9 -37z"/>
<path d="M6490 6928 c0 -19 2 -20 10 -8 13 19 13 30 0 30 -5 0 -10 -10 -10
-22z"/>
<path d="M9187 6943 c-11 -10 -8 -61 3 -68 6 -4 10 10 10 34 0 42 -2 46 -13
34z"/>
<path d="M1485 6875 c-4 -31 -5 -58 -3 -61 3 -2 8 21 12 52 4 31 5 59 2 61 -2
3 -8 -21 -11 -52z"/>
<path d="M7202 6890 c0 -14 2 -19 5 -12 2 6 2 18 0 25 -3 6 -5 1 -5 -13z"/>
<path d="M4376 6859 c11 -105 35 -270 43 -291 11 -27 5 46 -10 125 -5 26 -9
69 -9 95 0 27 -4 52 -9 58 -5 5 -11 18 -14 29 -2 11 -3 4 -1 -16z"/>
<path d="M7215 6838 c4 -13 11 -27 16 -33 5 -5 4 5 -2 23 -12 36 -24 44 -14
10z"/>
<path d="M810 6722 c-42 -122 -45 -132 -32 -112 14 20 75 201 70 205 -2 2 -19
-40 -38 -93z"/>
<path d="M2022 6730 c0 -14 2 -19 5 -12 2 6 2 18 0 25 -3 6 -5 1 -5 -13z"/>
<path d="M7251 6734 c0 -11 3 -14 6 -6 3 7 2 16 -1 19 -3 4 -6 -2 -5 -13z"/>
<path d="M9085 6704 c-20 -15 -23 -92 -5 -138 19 -50 12 -120 -15 -160 -41
-60 -61 -107 -80 -181 -9 -38 -23 -83 -30 -100 -13 -30 -16 -65 -6 -65 3 0 7
-19 7 -42 2 -75 27 -156 59 -193 17 -19 33 -35 38 -35 13 0 102 -44 115 -57 7
-7 18 -13 23 -13 5 0 9 99 9 240 0 211 -2 240 -16 240 -8 0 -13 4 -9 9 3 5 -3
12 -14 16 -17 5 -27 22 -37 65 -4 17 43 70 63 70 10 0 13 36 13 165 0 163 0
166 -22 174 -13 5 -29 6 -35 4 -7 -3 -13 -1 -13 4 0 14 -24 12 -45 -3z"/>
<path d="M2012 6675 c0 -16 2 -22 5 -12 2 9 2 23 0 30 -3 6 -5 -1 -5 -18z"/>
<path d="M7073 6595 c0 -33 2 -45 4 -27 2 18 2 45 0 60 -2 15 -4 0 -4 -33z"/>
<path d="M2001 6624 c0 -11 3 -14 6 -6 3 7 2 16 -1 19 -3 4 -6 -2 -5 -13z"/>
<path d="M7941 6564 c15 -62 38 -185 44 -237 4 -27 9 -47 11 -44 12 12 -39
290 -57 311 -4 5 -3 -9 2 -30z"/>
<path d="M1992 6560 c0 -14 2 -19 5 -12 2 6 2 18 0 25 -3 6 -5 1 -5 -13z"/>
<path d="M1970 6430 c-7 -56 -10 -103 -8 -106 3 -2 10 41 17 97 7 55 10 103 8
105 -3 3 -10 -40 -17 -96z"/>
<path d="M4437 6457 c4 -51 58 -213 74 -223 5 -3 -2 25 -17 63 -23 60 -44 127
-57 188 -3 11 -3 -2 0 -28z"/>
<path d="M7067 6473 c-4 -3 -6 -27 -6 -52 l2 -46 7 50 c8 53 7 59 -3 48z"/>
<path d="M7765 6458 c-4 -10 6 -34 28 -65 43 -59 58 -95 101 -251 19 -67 37
-126 40 -131 3 -5 15 -64 26 -132 40 -241 38 -660 -5 -884 -19 -96 -19 -115
-1 -115 15 0 32 67 58 230 14 93 20 682 6 674 -4 -3 -8 1 -8 8 -2 103 -60 335
-129 513 -35 90 -104 182 -116 153z"/>
<path d="M8820 6385 c0 -8 7 -15 15 -15 9 0 12 6 9 15 -4 8 -10 15 -15 15 -5
0 -9 -7 -9 -15z"/>
<path d="M8312 6335 c-1 -27 -4 -75 -7 -105 -5 -44 -3 -50 5 -31 6 14 9 61 7
105 -2 51 -4 62 -5 31z"/>
<path d="M7051 6356 c-22 -281 -66 -648 -91 -758 -4 -21 -4 -38 0 -38 5 0 11
19 15 43 3 23 14 96 25 162 10 66 24 165 29 220 29 282 33 332 29 360 -3 17
-6 22 -7 11z"/>
<path d="M1947 6233 c-4 -38 -6 -158 -5 -268 l1 -200 7 265 c4 146 6 266 5
268 -1 1 -5 -28 -8 -65z"/>
<path d="M8005 6224 c3 -28 12 -70 20 -95 l14 -44 -6 40 c-3 22 -12 65 -19 95
l-14 55 5 -51z"/>
<path d="M4520 6208 c0 -9 5 -20 10 -23 13 -8 13 5 0 25 -8 13 -10 13 -10 -2z"/>
<path d="M8291 6134 c0 -11 3 -14 6 -6 3 7 2 16 -1 19 -3 4 -6 -2 -5 -13z"/>
<path d="M8285 6080 c-4 -17 -5 -34 -2 -36 2 -3 7 10 11 27 3 18 4 34 2 36 -2
3 -7 -10 -11 -27z"/>
<path d="M7700 6088 c0 -7 9 -38 21 -68 59 -156 119 -405 147 -609 9 -68 32
-82 32 -19 0 72 -29 278 -51 358 -39 143 -81 265 -105 308 -24 41 -44 55 -44
30z"/>
<path d="M8265 5945 c-3 -26 -4 -49 -2 -51 3 -3 8 16 12 41 3 26 4 49 2 51 -3
3 -8 -16 -12 -41z"/>
<path d="M207 5941 c-3 -13 -1 -18 9 -14 7 2 10 11 7 19 -7 19 -10 18 -16 -5z"/>
<path d="M8062 5930 c0 -14 2 -19 5 -12 2 6 2 18 0 25 -3 6 -5 1 -5 -13z"/>
<path d="M230 5881 c0 -14 -5 -19 -15 -15 -10 4 -15 0 -15 -11 0 -9 5 -13 10
-10 6 3 10 1 10 -4 0 -6 -9 -11 -21 -11 -14 0 -18 -4 -12 -12 9 -15 13 -89 5
-102 -2 -4 -6 -54 -9 -110 -3 -66 -10 -113 -21 -136 -17 -35 -18 -35 -89 -38
l-73 -3 0 -53 0 -53 61 -7 c65 -8 109 -23 122 -43 5 -9 15 -10 34 -2 15 5 32
8 38 5 7 -2 19 4 28 15 13 15 31 19 79 20 35 1 67 1 72 0 5 -1 13 4 17 11 5 7
9 8 9 3 0 -6 32 -11 78 -12 42 -2 90 -4 106 -7 37 -6 53 1 59 25 4 15 2 19 -9
15 -8 -3 -14 -1 -14 3 0 5 5 11 12 13 8 3 6 7 -5 11 -9 3 -16 3 -14 -1 3 -9
-14 -11 -31 -5 -7 3 -21 3 -32 0 -10 -3 -20 -1 -22 4 -2 5 -27 12 -57 16 -40
4 -55 3 -62 -8 -6 -10 -9 -10 -9 -1 0 6 -5 12 -11 12 -5 0 -7 -6 -3 -12 6 -10
5 -10 -7 -1 -8 6 -45 19 -81 28 -101 26 -102 26 -105 141 -6 196 -9 250 -17
262 -4 7 -2 12 6 12 10 0 9 3 -1 9 -12 8 -13 15 -3 35 7 16 8 28 2 31 -6 4
-10 -3 -10 -14z m-10 -126 c11 -13 10 -14 -4 -9 -9 3 -16 10 -16 15 0 13 6 11
20 -6z"/>
<path d="M8253 5840 c0 -25 2 -35 4 -22 2 12 2 32 0 45 -2 12 -4 2 -4 -23z"/>
<path d="M4125 5830 c3 -5 8 -10 11 -10 2 0 4 5 4 10 0 6 -5 10 -11 10 -5 0
-7 -4 -4 -10z"/>
<path d="M8805 5728 c-59 -22 -72 -77 -32 -135 22 -34 73 -57 93 -42 6 5 15 4
22 -3 27 -27 28 126 0 171 -14 23 -37 25 -83 9z"/>
<path d="M8211 5648 c0 -9 -4 -25 -7 -35 -5 -17 -5 -17 6 0 6 10 9 25 7 35 -4
15 -5 15 -6 0z"/>
<path d="M8102 5525 c0 -16 2 -22 5 -12 2 9 2 23 0 30 -3 6 -5 -1 -5 -18z"/>
<path d="M8152 5471 c-6 -17 -9 -31 -6 -31 7 0 25 52 20 57 -2 2 -8 -10 -14
-26z"/>
<path d="M205 5100 c-3 -5 -1 -10 4 -10 6 0 11 5 11 10 0 6 -2 10 -4 10 -3 0
-8 -4 -11 -10z"/>
<path d="M208 5065 c-17 -20 -23 -39 -24 -85 0 -33 3 -60 7 -60 4 0 5 -9 2
-19 -6 -24 15 -91 28 -91 6 0 8 8 5 18 -3 9 1 30 9 45 8 16 14 56 15 90 0 34
0 77 0 95 1 39 -12 41 -42 7z"/>
<path d="M6997 5072 c1 -8 3 -16 3 -18 0 -3 5 -2 10 1 6 3 10 11 10 16 0 6 -4
8 -9 5 -5 -4 -11 -3 -14 1 -2 5 -2 2 0 -5z"/>
<path d="M9183 5034 c-3 -8 -1 -39 4 -67 l10 -52 2 68 c1 66 -4 82 -16 51z"/>
<path d="M7922 4835 c0 -16 2 -22 5 -12 2 9 2 23 0 30 -3 6 -5 -1 -5 -18z"/>
<path d="M9189 4658 c-6 -20 -5 -38 2 -49 6 -10 9 -4 9 19 0 17 -2 32 -5 32
-3 0 -5 -1 -6 -2z"/>
<path d="M595 3740 c3 -5 8 -10 11 -10 2 0 4 5 4 10 0 6 -5 10 -11 10 -5 0 -7
-4 -4 -10z"/>
<path d="M676 3691 c-3 -5 1 -11 9 -15 8 -3 15 -1 15 4 0 13 -18 22 -24 11z"/>
<path d="M7816 3205 c-9 -26 -7 -32 5 -12 6 10 9 21 6 23 -2 3 -7 -2 -11 -11z"/>
<path d="M7 3203 c-11 -10 -8 -43 3 -43 6 0 10 11 10 25 0 26 -2 29 -13 18z"/>
<path d="M8016 3035 c4 -8 8 -15 10 -15 2 0 4 7 4 15 0 8 -4 15 -10 15 -5 0
-7 -7 -4 -15z"/>
<path d="M7986 3012 c-2 -4 -1 -14 5 -22 7 -12 9 -10 9 8 0 23 -5 28 -14 14z"/>
<path d="M8310 2770 c-13 -8 -12 -10 3 -10 9 0 17 5 17 10 0 12 -1 12 -20 0z"/>
<path d="M8275 2750 c3 -5 11 -10 16 -10 6 0 7 5 4 10 -3 6 -11 10 -16 10 -6
0 -7 -4 -4 -10z"/>
<path d="M8435 2740 c3 -5 8 -10 11 -10 2 0 4 5 4 10 0 6 -5 10 -11 10 -5 0
-7 -4 -4 -10z"/>
<path d="M8380 2719 c0 -5 4 -8 9 -5 5 4 12 0 14 -6 3 -8 6 -6 6 5 1 9 -6 17
-14 17 -8 0 -15 -5 -15 -11z"/>
<path d="M8505 2720 c-4 -6 -10 -8 -15 -5 -4 3 -6 -4 -3 -15 6 -23 6 -23 22 8
12 22 8 32 -4 12z"/>
<path d="M8453 2674 c-9 -19 -8 -26 6 -36 13 -10 14 -10 4 2 -10 11 -10 17 3
31 8 9 12 19 7 22 -5 3 -13 -5 -20 -19z"/>
<path d="M8487 2654 c3 -7 11 -10 19 -7 20 8 17 22 -5 20 -10 0 -17 -7 -14
-13z"/>
<path d="M8446 2606 c3 -9 13 -16 22 -16 8 0 13 1 11 3 -2 1 -12 9 -22 16 -15
12 -17 12 -11 -3z"/>
<path d="M8391 2542 c13 -38 26 -49 24 -21 -1 11 -9 27 -19 37 -16 16 -16 15
-5 -16z"/>
<path d="M8482 2530 c0 -14 2 -19 5 -12 2 6 2 18 0 25 -3 6 -5 1 -5 -13z"/>
<path d="M8472 2472 c8 -9 14 -10 16 -3 2 6 9 8 15 4 7 -3 9 -2 4 2 -4 5 -16
9 -27 10 -16 1 -17 -1 -8 -13z"/>
<path d="M1180 1529 c-28 -14 -31 -18 -14 -19 12 0 27 -7 34 -15 7 -8 17 -15
23 -15 7 0 7 4 -1 12 -18 18 -15 49 3 42 8 -4 15 -4 15 -1 0 13 -29 11 -60 -4z"/>
<path d="M1095 1519 c-9 -14 -2 -20 14 -10 8 6 9 11 3 15 -6 3 -14 1 -17 -5z"/>
<path d="M880 1391 c0 -6 5 -13 10 -16 6 -3 10 1 10 9 0 9 -4 16 -10 16 -5 0
-10 -4 -10 -9z"/>
<path d="M785 1360 c-3 -5 -1 -10 4 -10 6 0 11 5 11 10 0 6 -2 10 -4 10 -3 0
-8 -4 -11 -10z"/>
<path d="M991 1354 c0 -11 3 -14 6 -6 3 7 2 16 -1 19 -3 4 -6 -2 -5 -13z"/>
<path d="M1016 1357 c3 -10 9 -15 12 -12 3 3 0 11 -7 18 -10 9 -11 8 -5 -6z"/>
<path d="M750 1342 c0 -5 12 -14 27 -21 28 -13 28 -13 9 8 -20 22 -36 27 -36
13z"/>
<path d="M1085 1320 c3 -5 10 -10 16 -10 5 0 9 5 9 10 0 6 -7 10 -16 10 -8 0
-12 -4 -9 -10z"/>
<path d="M855 1300 c-3 -5 1 -10 10 -10 9 0 13 5 10 10 -3 6 -8 10 -10 10 -2
0 -7 -4 -10 -10z"/>
<path d="M827 1268 c5 -31 3 -38 -11 -38 -10 0 -14 -4 -11 -10 3 -5 12 -10 19
-10 19 0 26 57 10 78 -11 15 -12 12 -7 -20z"/>
<path d="M880 1260 c0 -11 2 -20 4 -20 2 0 6 9 9 20 3 11 1 20 -4 20 -5 0 -9
-9 -9 -20z"/>
<path d="M937 1257 c-9 -11 -17 -25 -17 -30 0 -6 10 2 21 17 12 15 20 29 17
31 -2 2 -11 -6 -21 -18z"/>
<path d="M805 1259 c-4 -6 -5 -12 -2 -15 2 -3 7 2 10 11 7 17 1 20 -8 4z"/>
<path d="M1027 1263 c-12 -12 -7 -23 9 -23 9 0 23 -8 30 -17 7 -10 16 -14 21
-9 4 5 3 11 -3 13 -7 2 -10 14 -7 26 4 17 2 19 -5 8 -8 -12 -14 -12 -25 -3 -7
7 -17 9 -20 5z"/>
<path d="M1178 1263 c7 -3 16 -2 19 1 4 3 -2 6 -13 5 -11 0 -14 -3 -6 -6z"/>
<path d="M901 1253 c-1 -7 -13 -19 -28 -27 l-28 -15 33 -13 c18 -8 29 -17 25
-21 -6 -7 -1 -9 30 -11 6 -1 15 -5 19 -11 5 -6 8 -5 8 3 0 6 5 12 10 12 6 0
10 -6 10 -14 0 -14 -47 -15 -69 -2 -6 4 -11 3 -11 -2 0 -5 11 -15 25 -22 30
-16 75 0 75 26 0 9 6 14 14 11 18 -7 13 35 -9 65 -17 22 -17 22 -12 2 3 -17 1
-20 -14 -17 -21 6 -27 -13 -6 -20 6 -2 9 -8 5 -12 -4 -4 -15 -4 -25 0 -10 5
-21 7 -25 7 -4 -1 -10 10 -14 26 -8 38 -12 49 -13 35z"/>
<path d="M75 1230 c-3 -5 -4 -10 -1 -10 2 0 11 -3 20 -6 11 -4 16 -1 16 10 0
18 -25 22 -35 6z"/>
<path d="M45 1220 c-3 -5 -1 -10 4 -10 6 0 11 5 11 10 0 6 -2 10 -4 10 -3 0
-8 -4 -11 -10z"/>
<path d="M883 1110 c-1 -11 2 -20 5 -20 4 0 8 9 9 20 1 11 -2 20 -5 20 -4 0
-8 -9 -9 -20z"/>
<path d="M909 1120 c-1 -8 -1 -19 0 -24 1 -5 -4 -13 -11 -17 -17 -11 -3 -23
17 -15 24 9 30 36 11 54 -13 14 -16 14 -17 2z"/>
<path d="M857 1003 c-4 -3 -7 -15 -7 -25 0 -16 3 -16 20 -6 11 7 16 14 10 16
-6 2 -8 8 -4 13 6 10 -9 12 -19 2z"/>
<path d="M1200 986 c0 -2 7 -9 15 -16 9 -7 15 -8 15 -2 0 5 -7 12 -15 16 -8 3
-15 4 -15 2z"/>
<path d="M820 565 c7 -8 17 -15 22 -15 5 0 3 7 -6 15 -8 8 -18 15 -22 15 -3 0
-1 -7 6 -15z"/>
</g>
</svg>
